<svg xmlns="http://www.w3.org/2000/svg" xmlns:xlink="http://www.w3.org/1999/xlink" viewBox="0 0 480.22 375.02"><defs><clipPath id="clip-path" transform="translate(-4.56 -88.73)"><path d="M259.06,268.08c-16-3.16-152.6-23.8-139,12.36,2,5.33,5.33,5.33,1.33,10-3.33,3.33-12,4-16,4.66-9.33,1.34-20.66,2-26,11.34C56,347.1,148.69,377.77,174,385.77c38.67,12,76,23.33,116.66,26a113.5,113.5,0,0,0,26-.67c10.67-1.33,16-5.33,24.67-10.66,14.67-9.34,36,2,52.67,1.33,15.33-.67,42.66-5.33,50.66-21.33C455.35,359.1,418,349.1,406,341.1c-9.34-6.66-2-16-11.34-22.66-20-14.27-47.8-27.15-70.79-33.81C302.5,278.44,280.94,272.41,259.06,268.08Z" style="fill:none"/></clipPath><clipPath id="clip-path-2" transform="translate(-4.56 -88.73)"><path d="M393.75,298.67c3.12-1-11.28-13.31-11.28-16.82,0-.65,0-1.32-.08-2-.31-3.92-2.95-7.56-5.59-10.25-8.18-8.52-19.07-11.71-30.49-11.41-4,.24-11.15.47-13.5,4.73-1,2.22-.95,5.61-.27,8.73.51,2.31-48,14.38-47.23,15.93,13.46,25.68,62.28,25,72.91,25.2C361.79,312.83,388.62,300.27,393.75,298.67Z" style="fill:none"/></clipPath><clipPath id="clip-path-3" transform="translate(-4.56 -88.73)"><path d="M144.4,286.28c2.52-.5,2.83,2.09,2.33,3.09-1,2.75-5,2.08-7.25,2.33-5.25,1-10,1.75-15.25,3.75-3.25,1-6.75,1-10,1.5-3.5.25-7,1.5-10.25,2a31.6,31.6,0,0,1-18-2.75C83.23,295,71.73,289,75.23,285c2-2.25,9.88-12.85,13.13-12.85,5.5,0,9.77-1.51,15.27-2.51,5.25-.75,13,2.51,18.47,3.76,6.5,1.25,8.52,7.18,15.27,7.18Z" style="fill:none"/></clipPath><clipPath id="clip-path-4" transform="translate(-4.56 -88.73)"><path d="M187.9,347.89c2.52-.5,2.84,2.09,2.34,3.09-1,2.75-5,2.08-7.26,2.33-5.25,1-10,1.75-15.25,3.75-3.25,1-6.75,1-10,1.5-3.5.25-7,1.5-10.25,2a31.6,31.6,0,0,1-18-2.75c-2.75-1.25-14.25-7.25-10.75-11.25,2-2.25,9.88-12.85,13.13-12.85,5.5,0,9.78-1.51,15.28-2.51,5.25-.75,13,2.51,18.46,3.76,6.5,1.25,8.52,7.18,15.27,7.18Z" style="fill:none"/></clipPath></defs><title>main1</title><g style="isolation:isolate"><g id="BACKGROUND"><path d="M259.06,268.08c-16-3.16-152.6-23.8-139,12.36,2,5.33,5.33,5.33,1.33,10-3.33,3.33-12,4-16,4.66-9.33,1.34-20.66,2-26,11.34C56,347.1,148.69,377.77,174,385.77c38.67,12,76,23.33,116.66,26a113.5,113.5,0,0,0,26-.67c10.67-1.33,16-5.33,24.67-10.66,14.67-9.34,36,2,52.67,1.33,15.33-.67,42.66-5.33,50.66-21.33C455.35,359.1,418,349.1,406,341.1c-9.34-6.66-2-16-11.34-22.66-20-14.27-47.8-27.15-70.79-33.81C302.5,278.44,280.94,272.41,259.06,268.08Z" transform="translate(-4.56 -88.73)" style="fill:#bb8057"/><g style="clip-path:url(#clip-path)"><path d="M366.18,431.73c-1-1.87-5.11-6.21-8.34-4.75l-.65.12c.58-2.38-6.27-11.72-12.27-5-.26-8.17-5.61-22.09-22.8-16.67a25.83,25.83,0,0,0-3.62,1.42c.13-.21.25-.41.37-.63,2.46-5.22-.8-9.8-6.75-11.53a8.45,8.45,0,0,0-7.34.68l.33-.06c-.16.15-.15.6-.32.51,0-3.77-2.71-8.09-5.89-10.41a18.35,18.35,0,0,0-7.45-2.5c-3.77-.16-5,1.43-7.41,3.54.34-4.51-8-13-14.78-6.5-.18-.31,0-.91-.2-1.22-1.37-1.82-1-4.52-2.51-6.65a14.54,14.54,0,0,0-6.06-5.36,12.58,12.58,0,0,0-3.91-.91c0-2.61-2.44-4.67-5.29-6.3-5-2.8-10.86-1.58-16.77-2.17,6.3-7.69-12.59-9.85-19.26-8.37,5.87-5.91-9.55-12.3-16.63-8.36,1.85-7.21-6.85-7.87-14.73-6.31a6.19,6.19,0,0,0-2.44-8.35c-2.5-1.51-5.79-2.1-9.24-2.54s-7.19.54-10.15.13c-.49,0-1.3.22-1.79.19,7.49-6.18-6.85-9.34-13.19-7.92,2.39-2.12,4.32-3.36,3.09-5.77a12.75,12.75,0,0,0-5.53-4.2,35.54,35.54,0,0,0-16.41-1.09c-.16-.09.49-.2.65-.34v.23c1.58-1.87.71-3.66-1-5-4-3.43-11.44-4.34-18.22-1.36-.28.13-.54.27-.81.41A11,11,0,0,0,110,296c3.2-12.64-18.08-12.45-29.8-10.46,8-5.69-7.12-7.69-10.37-6.68v-.46c1.23-2.49-6-4-9-4.18-3.29-.35-10.12,1-8.7,4.44.71,1.71,7,2.7,9.59,3.17-6.51,1.1-2.47,4.53.51,5.62s7.56.77,11.14.39c-4.51,2.13-.79,5.84,1.87,7.21,3.33,1.72,7.57,1.23,11.77-.63-6.27,3.81,7.68,11.5,16.63,8.57-1.27,2.19-.42,4.41,2.67,6.53a24.53,24.53,0,0,0,7.64,3.49,30.12,30.12,0,0,0,4.45.73c.33.17,4.42,0,4.42.28.17.09.17.09.5,0-4.85,2,1.47,5.22,3.14,6.08,3.16,1.63,8.28,3.16,12.66,1.85-2.69,2.85,2,6.84,4.36,8.27,3.83,2.21,8.91,2.37,14.12,1.49-5.35,4,6.4,9.64,16.19,8.58-1.09,5.55,14.38,6.17,19.47,6-3.47,4,.53,6.3,4.5,7.68,4.81,1.81,9.37,1,14.77,1.15-2.14,4.7-.59,7.06,4.39,9.41a36.18,36.18,0,0,0,7.29,2.64c2.31.52,5.25.25,7.71.63-4.59,5.63,2.41,7.77,10.08,7,.33,6.92,12.1,13.72,16.6,9a9.44,9.44,0,0,0,5.84,8.82c2.66,1.14,9.6,3.16,12.95.65-.71,3.2,2.82,6.14,6,7.77,1.66.86,8,4.12,9.51.44,0,.23,0,.23.17.31.33-.05,1.23,2.65,1.57,2.82a14.22,14.22,0,0,0,2.21,2.71,22.3,22.3,0,0,0,7,4.05c3.84,1.46,7.23,1.43,10,0C312,418,326.67,425.09,330.44,420c-1.53,3.22-1.11,6.12,2.22,7.84,2.66,1.37,8.93,2.81,10.78-.69.4,2.44,1.16,5.5,3.5,7.16s8.29,3.38,8.15-1.15c1.36,1.59,4.43,5.41,7.05,5.42C367.38,438.6,367.55,433.78,366.18,431.73Z" transform="translate(-4.56 -88.73)" style="fill:#68442a"/><path d="M9.36,282.94c2.3-.15,8.61.92,9.25,4.42l.3.61c1.77-1.78,14.21-1.1,11.84,7.6,7.43-4.22,23.06-7.3,28.58,10.1a24,24,0,0,1,.92,3.82c.11-.22.21-.44.34-.66,3.16-4.9,9.2-4.65,14.33-.59,2.06,1.54,3.82,3.83,3.82,6.54l-.15-.3c0,.21-.44.44-.26.54,3.33-2.09,8.84-2.13,12.82-.71a20.21,20.21,0,0,1,6.72,4.9c2.41,3.09,1.76,5,1.31,8.16,3.81-2.74,16.39-.4,14.7,8.89.38,0,.82-.47,1.21-.49,2.44.16,4.6-1.65,7.43-1.52a16.86,16.86,0,0,1,8.42,2.18,14.11,14.11,0,0,1,3.17,2.8c2.29-1.46,5.63-.49,8.8,1,5.5,2.68,7.94,8.27,12,12.92,3-9.48,16.35,5.23,19.05,11.64,1.72-8.15,16.71,1.34,17.47,9.44,5.3-5.48,11.13,1.48,14.49,8.95,1.86-3,5.34-4,8.9-2.49,2.86,1.28,5.36,3.73,7.84,6.39s3.85,6.34,6,8.6c.32.4.59,1.21.91,1.61,1-9.66,12.44.68,15,6.78.45-3.16.4-5.45,3.29-5.74a14.59,14.59,0,0,1,7.07,2.37,37.34,37.34,0,0,1,10.86,13.2c.17.1-.12-.51-.09-.73l-.21.12c.71-2.34,2.83-2.58,5-1.88C276,413,281.28,418.69,282.72,426c0,.31.08.6.12.9a10.37,10.37,0,0,1,1.8-2.38c9.32-9.57,22,8.42,27.27,19.36.24-9.82,11.14,1.81,12.2,5.09l.41-.24c1.47-2.39,7.19,2.88,9.13,5.27,2.29,2.56,5.17,9.07,1.28,9.73-1.94.33-6.6-4.39-8.6-6.35,2.94,6.08-2.54,4.55-5.31,2.63s-5.23-5.93-7.06-9.15c.82,4.95-4.72,3.84-7.55,2.35-3.53-1.86-5.65-5.7-6.53-10.23.39,7.34-14.87-.21-17.65-9.33-1.18,2.25-3.67,2.76-7.42,1.31a27.7,27.7,0,0,1-7.72-4.53,31.8,31.8,0,0,1-3.33-3.34c-.35-.19-2.7-3.69-2.91-3.57-.18-.09-.18-.09-.32-.4,1.17,5.14-5.55,1.6-7.31.67-3.36-1.77-7.81-5.25-9.28-9.65-.92,3.82-7.31,2-10,.84-4.27-2-7.48-6.2-9.83-11.07-.37,6.7-12.45-.13-17.4-8.93-4.29,3.93-14.16-8.74-17.09-13.11-1.48,5.11-5.93,3-9.55.4-4.5-3.06-6.56-7.32-9.92-11.8-2.89,4.36-5.93,4.34-11,1.43a39.68,39.68,0,0,1-6.75-4.69c-1.85-1.66-3.38-4.28-5.21-6.15-2.24,6.93-8.37,2.2-12.29-4.66-6.37,3.48-19.51-2.72-18-9.06a10.79,10.79,0,0,1-11.38-.12c-2.62-1.61-8.6-6.35-8.38-10.54-2.43,2.35-7.17,1-10.53-.79-1.76-.94-8.48-4.48-6.12-7.76-.2.12-.2.12-.38,0-.15-.31-3.1.4-3.45.21a15.56,15.56,0,0,1-3.74-.39,24.84,24.84,0,0,1-7.84-3.68c-3.61-2.43-5.62-5.3-6-8.41-4.79,5.12-19.92-3.36-17.66-9.3-1.94,3-4.78,4.27-8.31,2.4-2.83-1.49-7.89-6-5.88-9.44-2.42,1-5.61,2-8.49,1s-8-5.14-3.89-7.48c-2.23-.28-7.48-.78-9.07-3C2.52,285.67,6.71,282.9,9.36,282.94Z" transform="translate(-4.56 -88.73)" style="fill:#68442a"/><path d="M95.8,259.43c2.12-.31,8,.32,8.81,3.77l.31.59c1.55-1.9,13.12-2.08,11.39,6.77,6.67-4.73,21-8.87,27.05,8.11a25.31,25.31,0,0,1,1.06,3.74c.09-.23.17-.45.28-.68,2.67-5.11,8.29-5.28,13.26-1.58a8.42,8.42,0,0,1,3.89,6.26l-.15-.29c0,.21-.39.48-.22.56,3-2.32,8.1-2.73,11.86-1.59a18.4,18.4,0,0,1,6.49,4.43c2.4,2.91,1.9,4.87,1.66,8.05,3.38-3,15.18-1.53,14.1,7.85.36-.05.75-.53,1.1-.58,2.28,0,4.18-2,6.81-2a14.68,14.68,0,0,1,7.94,1.6,12.92,12.92,0,0,1,3.08,2.57c2-1.61,5.2-.88,8.22.42,5.25,2.29,7.81,7.7,11.85,12,2.33-9.67,15.45,4.09,18.3,10.29,1.16-8.24,15.58.2,16.71,8.22,4.63-5.83,10.4.71,13.92,7.93a6.2,6.2,0,0,1,8.13-3.1c2.72,1.08,5.17,3.35,7.6,5.84s3.92,6.05,6,8.16c.32.38.61,1.17.93,1.55.4-9.71,11.58-.18,14.27,5.73.25-3.19.08-5.47,2.74-5.95a12.69,12.69,0,0,1,6.69,1.88,35.56,35.56,0,0,1,10.78,12.41c.16.08-.14-.5-.13-.72l-.18.14c.53-2.39,2.49-2.77,4.55-2.22,5.17,1.15,10.36,6.49,12.08,13.69.06.31.11.6.16.9a10.84,10.84,0,0,1,1.54-2.5c8.14-10.19,20.84,6.89,26.33,17.43-.3-9.81,10.43,1,11.59,4.23l.37-.26c1.24-2.49,6.82,2.38,8.75,4.62,2.26,2.41,5.29,8.69,1.71,9.62-1.79.46-6.35-3.92-8.31-5.74,3.05,5.86-2.12,4.71-4.79,3s-5.18-5.55-7-8.64c1,4.88-4.18,4.16-6.88,2.86-3.38-1.61-5.55-5.29-6.6-9.76.75,7.3-13.81.82-16.87-8.08-1,2.33-3.27,3-6.82,1.81a24.47,24.47,0,0,1-7.4-4,31.06,31.06,0,0,1-3.27-3.1c-.33-.17-2.7-3.5-2.89-3.37-.17-.08-.17-.08-.32-.37,1.36,5-5,2-6.75,1.17-3.21-1.54-7.52-4.7-9.11-9-.65,3.87-6.68,2.52-9.23,1.52-4.07-1.72-7.27-5.68-9.71-10.36,0,6.7-11.55.72-16.62-7.72-3.77,4.22-13.6-7.74-16.55-11.89-1.1,5.19-5.34,3.38-8.84,1.05-4.34-2.74-6.48-6.84-9.83-11.08-2.45,4.54-5.27,4.73-10.15,2.18a35.57,35.57,0,0,1-6.5-4.22c-1.81-1.52-3.37-4-5.17-5.77-1.71,7.06-7.64,2.77-11.65-3.81-5.72,3.91-18.24-1.36-17.2-7.79a9.43,9.43,0,0,1-10.56.66c-2.52-1.42-8.31-5.74-8.34-9.93-2.12,2.51-6.59,1.47-9.81-.07-1.68-.81-8.1-3.88-6.09-7.31-.18.13-.18.13-.35.05-.15-.29-2.85.62-3.19.45a13.86,13.86,0,0,1-3.49-.13,22.33,22.33,0,0,1-7.47-3.13c-3.48-2.17-5.5-4.91-6.06-8-4.17,5.44-18.66-2-16.87-8.06-1.65,3.17-4.21,4.58-7.59,3-2.7-1.3-7.64-5.42-6-9-2.19,1.16-5.09,2.41-7.82,1.54s-7.71-4.57-4-7.19c-2.09-.13-7-.27-8.57-2.35C89.59,262.62,93.33,259.57,95.8,259.43Z" transform="translate(-4.56 -88.73)" style="fill:#68442a"/><path d="M442.44,392.33c-1.09-1.85-5.27-6.06-8.46-4.52l-.65.13c.52-2.39-6.58-11.54-12.4-4.66-.48-8.16-6.21-21.93-23.24-16a27.19,27.19,0,0,0-3.58,1.51l.36-.64c2.31-5.28-1.07-9.77-7.07-11.33a8.41,8.41,0,0,0-7.32.87l.33-.06c-.16.14-.13.6-.3.52-.06-3.78-2.93-8-6.18-10.25a18.36,18.36,0,0,0-7.51-2.3c-3.77-.05-5,1.56-7.32,3.74.23-4.51-8.29-12.8-15-6.1-.18-.31,0-.9-.23-1.21-1.42-1.79-1.09-4.49-2.69-6.58a14.54,14.54,0,0,0-6.2-5.2,13,13,0,0,0-3.93-.8c0-2.6-2.57-4.6-5.47-6.15-5.07-2.66-10.89-1.28-16.82-1.72,6.09-7.85-12.85-9.49-19.47-7.84,5.7-6.06-9.89-12-16.86-7.9,1.66-7.26-7.06-7.68-14.9-5.91a6.18,6.18,0,0,0-2.66-8.28c-2.54-1.45-5.85-1.94-9.31-2.28s-7.17.73-10.14.4c-.49,0-1.29.25-1.79.23,7.33-6.38-7.09-9.14-13.39-7.55,2.33-2.18,4.22-3.47,2.93-5.86a12.75,12.75,0,0,0-5.65-4,35.54,35.54,0,0,0-16.43-.65c-.16-.08.48-.21.64-.35v.22c1.53-1.9.61-3.67-1.11-4.94-4.13-3.31-11.54-4-18.24-.86-.28.14-.54.29-.8.43a11.2,11.2,0,0,0,1-2.76c2.85-12.72-18.41-12-30.07-9.65,7.84-5.91-7.33-7.49-10.55-6.4l0-.45c1.16-2.52-6.13-3.84-9.08-3.94-3.3-.26-10.09,1.31-8.58,4.68.76,1.68,7,2.5,9.68,2.9-6.48,1.28-2.35,4.59.66,5.6s7.57.57,11.15.09c-4.46,2.26-.64,5.86,2.06,7.16,3.37,1.63,7.6,1,11.74-.95-6.16,4,8,11.29,16.86,8.12-1.2,2.22-.3,4.42,2.85,6.45a24.45,24.45,0,0,0,7.73,3.28,30.17,30.17,0,0,0,4.47.61c.34.17,4.42-.07,4.43.16.17.08.17.08.49,0-4.79,2.1,1.62,5.19,3.31,6,3.21,1.55,8.37,2.93,12.71,1.5-2.61,2.93,2.2,6.79,4.58,8.15,3.89,2.1,9,2.13,14.16,1.1-5.24,4.18,6.66,9.47,16.41,8.15-.94,5.57,14.54,5.77,19.63,5.48-3.36,4.1.7,6.28,4.71,7.55,4.85,1.68,9.39.78,14.79.74-2,4.76-.4,7.08,4.65,9.29a35.62,35.62,0,0,0,7.35,2.45c2.33.45,5.26.1,7.73.42-4.43,5.75,2.62,7.7,10.26,6.71.53,6.91,12.48,13.39,16.84,8.55a9.45,9.45,0,0,0,6.08,8.66c2.69,1.07,9.68,2.89,13,.29-.63,3.23,3,6.07,6.18,7.61,1.69.81,8.1,3.9,9.52.19,0,.22,0,.22.18.3.33-.06,1.3,2.61,1.64,2.77a14.24,14.24,0,0,0,2.29,2.65,22.15,22.15,0,0,0,7.11,3.87c3.87,1.35,7.27,1.22,10-.26-1.63,6.66,13.21,13.32,16.84,8.13-1.44,3.27-.94,6.15,2.43,7.78,2.7,1.3,9,2.57,10.76-1,.47,2.42,1.31,5.47,3.7,7.06s8.38,3.16,8.11-1.37c1.4,1.55,4.57,5.28,7.19,5.22C443.83,399.17,443.87,394.34,442.44,392.33Z" transform="translate(-4.56 -88.73)" style="fill:#68442a"/><path d="M171.47,229.79c2.13-.31,8,.32,8.82,3.77l.3.59c1.55-1.9,13.12-2.08,11.39,6.77,6.67-4.73,21-8.87,27.05,8.11a25.31,25.31,0,0,1,1.06,3.74c.09-.23.18-.46.28-.68,2.67-5.11,8.29-5.28,13.26-1.58a8.46,8.46,0,0,1,3.9,6.26l-.16-.29c0,.21-.38.48-.21.56,3-2.32,8.09-2.73,11.85-1.59a18.23,18.23,0,0,1,6.49,4.43c2.41,2.91,1.9,4.86,1.66,8.05,3.38-3,15.18-1.54,14.11,7.85.35,0,.74-.53,1.09-.58,2.28,0,4.18-2,6.81-2a14.66,14.66,0,0,1,7.94,1.6,12.92,12.92,0,0,1,3.08,2.57c2.05-1.61,5.2-.88,8.22.42,5.25,2.29,7.81,7.7,11.86,12.05,2.32-9.67,15.44,4.09,18.29,10.29,1.17-8.24,15.58.2,16.71,8.22,4.63-5.83,10.41.71,13.92,7.93a6.2,6.2,0,0,1,8.13-3.1c2.72,1.08,5.17,3.35,7.61,5.84s3.91,6.05,6,8.16c.33.38.61,1.17.94,1.55.39-9.71,11.57-.19,14.27,5.73.24-3.19.07-5.47,2.73-5.95a12.6,12.6,0,0,1,6.69,1.88,35.46,35.46,0,0,1,10.78,12.41c.17.08-.14-.5-.12-.72l-.19.14c.54-2.39,2.49-2.77,4.55-2.22,5.17,1.15,10.36,6.49,12.08,13.69.07.31.11.6.16.9a10.56,10.56,0,0,1,1.55-2.5c8.14-10.19,20.83,6.89,26.33,17.43-.3-9.81,10.43,1,11.58,4.23l.37-.26c1.24-2.49,6.82,2.38,8.75,4.62,2.27,2.41,5.29,8.69,1.71,9.62-1.78.46-6.35-3.92-8.31-5.74,3.05,5.86-2.12,4.71-4.79,3s-5.17-5.55-7-8.65c1,4.89-4.17,4.17-6.87,2.87-3.38-1.61-5.55-5.29-6.61-9.76.75,7.3-13.8.82-16.87-8.08-1,2.33-3.26,3-6.81,1.81a24.63,24.63,0,0,1-7.41-4,30,30,0,0,1-3.26-3.1c-.34-.17-2.71-3.5-2.89-3.37-.17-.08-.17-.08-.32-.37,1.36,5.05-5.06,2-6.75,1.17-3.21-1.54-7.52-4.7-9.12-9-.65,3.87-6.67,2.52-9.22,1.52-4.07-1.72-7.27-5.68-9.71-10.36,0,6.7-11.56.72-16.62-7.72-3.77,4.22-13.6-7.74-16.55-11.89-1.1,5.19-5.34,3.38-8.84,1.05-4.34-2.74-6.48-6.84-9.83-11.09-2.46,4.55-5.27,4.74-10.16,2.19a35.57,35.57,0,0,1-6.5-4.22c-1.81-1.52-3.37-4-5.16-5.77-1.72,7.06-7.65,2.77-11.65-3.81-5.73,3.91-18.25-1.36-17.21-7.79a9.43,9.43,0,0,1-10.56.66c-2.51-1.42-8.31-5.74-8.34-9.93-2.12,2.51-6.59,1.47-9.8-.07-1.69-.81-8.11-3.88-6.09-7.31-.19.13-.19.13-.36,0-.15-.29-2.85.61-3.19.45a14.36,14.36,0,0,1-3.49-.13,22.19,22.19,0,0,1-7.46-3.13c-3.48-2.18-5.5-4.91-6.07-8-4.17,5.44-18.65-2-16.87-8.06-1.65,3.17-4.21,4.58-7.59,3-2.7-1.29-7.63-5.41-6-9-2.19,1.15-5.09,2.41-7.82,1.54s-7.71-4.57-4-7.2c-2.09-.12-7-.26-8.58-2.34C165.27,233,169,229.93,171.47,229.79Z" transform="translate(-4.56 -88.73)" style="fill:#68442a"/></g><path d="M370.83,359.1a11.66,11.66,0,0,1,3.51,5,20.53,20.53,0,0,1,1.29,5.94,30.94,30.94,0,0,1-.19,5.94,33.19,33.19,0,0,1-1.27,5.81,28.82,28.82,0,0,1-1.09-5.84c-.2-1.93-.31-3.82-.45-5.69s-.28-3.71-.56-5.54A38,38,0,0,0,370.83,359.1Z" transform="translate(-4.56 -88.73)" style="fill:#6cd379"/><path d="M377.83,351.44a34.29,34.29,0,0,1,1.11,7.64,67,67,0,0,1-.15,7.64c-.19,2.53-.48,5-.85,7.53s-.81,5-1.44,7.52a36.94,36.94,0,0,1-.92-7.66,74.14,74.14,0,0,1,.22-7.61c.18-2.52.46-5,.79-7.52S377.29,354,377.83,351.44Z" transform="translate(-4.56 -88.73)" style="fill:#6cd379"/><path d="M386.83,354.1c-.38,2.52-1,4.92-1.63,7.29s-1.25,4.7-1.79,7a67.87,67.87,0,0,0-1.26,7,51.4,51.4,0,0,0-.32,7.31,17.24,17.24,0,0,1-2-7.37,26.89,26.89,0,0,1,.69-7.65,38.19,38.19,0,0,1,6.34-13.65Z" transform="translate(-4.56 -88.73)" style="fill:#6cd379"/><path d="M388.17,370.44c-.16,1.27-.34,2.34-.5,3.4s-.34,2.08-.53,3.11-.41,2.1-.7,3.17a15,15,0,0,1-1.27,3.32,9.39,9.39,0,0,1-1.08-3.47,11.5,11.5,0,0,1,.1-3.56,10.29,10.29,0,0,1,1.28-3.42A6.52,6.52,0,0,1,388.17,370.44Z" transform="translate(-4.56 -88.73)" style="fill:#6cd379"/><path d="M163.14,328.83a11.75,11.75,0,0,1,3.51,5,20.19,20.19,0,0,1,1.28,5.94,29.38,29.38,0,0,1-.19,5.94,32.27,32.27,0,0,1-1.26,5.81,28.85,28.85,0,0,1-1.1-5.84c-.19-1.93-.3-3.82-.44-5.69s-.29-3.71-.56-5.54A38,38,0,0,0,163.14,328.83Z" transform="translate(-4.56 -88.73)" style="fill:#6cd379"/><path d="M170.14,321.17a34.29,34.29,0,0,1,1.11,7.64,67,67,0,0,1-.15,7.64c-.19,2.53-.49,5-.86,7.53s-.8,5-1.43,7.52a36.28,36.28,0,0,1-.92-7.66c-.07-2.55,0-5.09.21-7.61s.47-5,.8-7.52S169.6,323.71,170.14,321.17Z" transform="translate(-4.56 -88.73)" style="fill:#6cd379"/><path d="M179.14,323.83c-.39,2.52-1,4.92-1.64,7.29s-1.24,4.7-1.78,7a67.22,67.22,0,0,0-1.26,7,51.4,51.4,0,0,0-.32,7.31,17.26,17.26,0,0,1-2-7.37,26.54,26.54,0,0,1,.7-7.65,37.74,37.74,0,0,1,6.34-13.65Z" transform="translate(-4.56 -88.73)" style="fill:#6cd379"/><path d="M180.48,340.17c-.16,1.27-.34,2.34-.51,3.4s-.33,2.08-.52,3.12-.41,2.09-.7,3.16a15,15,0,0,1-1.27,3.32,9.39,9.39,0,0,1-1.08-3.47,11.5,11.5,0,0,1,.1-3.56,10.29,10.29,0,0,1,1.28-3.42A6.52,6.52,0,0,1,180.48,340.17Z" transform="translate(-4.56 -88.73)" style="fill:#6cd379"/><path d="M268.81,269.36a11.69,11.69,0,0,1,3.51,5,20.44,20.44,0,0,1,1.28,5.94,30.15,30.15,0,0,1-.19,5.94,32.3,32.3,0,0,1-1.27,5.81,29.53,29.53,0,0,1-1.09-5.84c-.19-1.93-.31-3.83-.44-5.69s-.29-3.71-.56-5.54A39.35,39.35,0,0,0,268.81,269.36Z" transform="translate(-4.56 -88.73)" style="fill:#6cd379"/><path d="M275.81,261.69a34.45,34.45,0,0,1,1.1,7.65,64.82,64.82,0,0,1-.15,7.64c-.18,2.52-.48,5-.85,7.53s-.81,5-1.44,7.52a37.72,37.72,0,0,1-.92-7.66c-.06-2.56,0-5.1.22-7.62s.46-5,.79-7.51S275.27,264.24,275.81,261.69Z" transform="translate(-4.56 -88.73)" style="fill:#6cd379"/><path d="M284.81,264.36c-.39,2.52-1,4.92-1.64,7.29s-1.25,4.7-1.78,7a63.19,63.19,0,0,0-1.26,7,51.61,51.61,0,0,0-.32,7.32,17.15,17.15,0,0,1-2-7.37,26.51,26.51,0,0,1,.7-7.65,36.12,36.12,0,0,1,2.49-7.16A36.73,36.73,0,0,1,284.81,264.36Z" transform="translate(-4.56 -88.73)" style="fill:#6cd379"/><path d="M286.14,280.69c-.16,1.28-.34,2.35-.5,3.41s-.33,2.07-.52,3.11-.41,2.09-.7,3.17a15,15,0,0,1-1.28,3.31,9.73,9.73,0,0,1-1.08-3.46,11.82,11.82,0,0,1,.11-3.56,10,10,0,0,1,1.28-3.42A6.58,6.58,0,0,1,286.14,280.69Z" transform="translate(-4.56 -88.73)" style="fill:#6cd379"/><path d="M165.5,292.63a11.6,11.6,0,0,1,3.51,5,20.12,20.12,0,0,1,1.28,5.94,29.41,29.41,0,0,1-.19,5.94,32.27,32.27,0,0,1-1.26,5.81,28.15,28.15,0,0,1-1.09-5.84c-.2-1.93-.31-3.83-.45-5.69s-.28-3.71-.56-5.54A38,38,0,0,0,165.5,292.63Z" transform="translate(-4.56 -88.73)" style="fill:#6cd379"/><path d="M172.5,285a34.47,34.47,0,0,1,1.11,7.65,66.83,66.83,0,0,1-.15,7.63c-.19,2.53-.49,5-.86,7.54s-.8,5-1.43,7.52a36.36,36.36,0,0,1-.92-7.66,74.25,74.25,0,0,1,.22-7.62c.18-2.52.46-5,.79-7.52S172,287.51,172.5,285Z" transform="translate(-4.56 -88.73)" style="fill:#6cd379"/><path d="M181.5,287.63c-.39,2.52-1,4.91-1.63,7.29s-1.25,4.7-1.79,7a68.16,68.16,0,0,0-1.26,7,51.61,51.61,0,0,0-.32,7.32,17.29,17.29,0,0,1-2-7.37,26.86,26.86,0,0,1,.7-7.65,37.44,37.44,0,0,1,2.49-7.16A36.38,36.38,0,0,1,181.5,287.63Z" transform="translate(-4.56 -88.73)" style="fill:#6cd379"/><path d="M182.84,304c-.16,1.28-.34,2.35-.51,3.41s-.33,2.07-.52,3.11-.41,2.09-.7,3.17a15,15,0,0,1-1.27,3.31,9.34,9.34,0,0,1-1.08-3.46,11.5,11.5,0,0,1,.1-3.56,10.21,10.21,0,0,1,1.28-3.42A6.54,6.54,0,0,1,182.84,304Z" transform="translate(-4.56 -88.73)" style="fill:#6cd379"/><path d="M357.25,313.94a11.57,11.57,0,0,1,3.51,5,20.19,20.19,0,0,1,1.28,5.94,29.5,29.5,0,0,1-.19,5.95,32.35,32.35,0,0,1-1.26,5.8,28.06,28.06,0,0,1-1.09-5.83c-.2-1.93-.31-3.83-.45-5.7s-.28-3.71-.56-5.54A38.19,38.19,0,0,0,357.25,313.94Z" transform="translate(-4.56 -88.73)" style="fill:#6cd379"/><path d="M364.25,306.27a34.29,34.29,0,0,1,1.11,7.64,67,67,0,0,1-.15,7.64c-.19,2.53-.49,5-.86,7.53s-.8,5-1.43,7.52a36.2,36.2,0,0,1-.92-7.66,74.14,74.14,0,0,1,.22-7.61c.18-2.52.46-5,.79-7.52S363.71,308.82,364.25,306.27Z" transform="translate(-4.56 -88.73)" style="fill:#6cd379"/><path d="M373.25,308.94c-.39,2.52-1,4.91-1.63,7.28s-1.25,4.71-1.79,7a67.22,67.22,0,0,0-1.26,7,51.4,51.4,0,0,0-.32,7.31,17.26,17.26,0,0,1-2-7.37,26.83,26.83,0,0,1,.7-7.64,37.44,37.44,0,0,1,2.49-7.16A36.38,36.38,0,0,1,373.25,308.94Z" transform="translate(-4.56 -88.73)" style="fill:#6cd379"/><path d="M374.59,325.27c-.16,1.28-.34,2.34-.5,3.4s-.34,2.08-.53,3.12-.41,2.09-.7,3.17a15.14,15.14,0,0,1-1.27,3.31,9.39,9.39,0,0,1-1.08-3.47,11.52,11.52,0,0,1,.1-3.56,10.24,10.24,0,0,1,1.28-3.41A6.48,6.48,0,0,1,374.59,325.27Z" transform="translate(-4.56 -88.73)" style="fill:#6cd379"/><path d="M147.44,251a11.66,11.66,0,0,1,3.51,5,20.57,20.57,0,0,1,1.28,5.95,30.15,30.15,0,0,1-.19,5.94,32.2,32.2,0,0,1-1.27,5.8,29.43,29.43,0,0,1-1.09-5.83c-.19-1.93-.31-3.83-.44-5.7s-.29-3.7-.56-5.53A39.35,39.35,0,0,0,147.44,251Z" transform="translate(-4.56 -88.73)" style="fill:#6cd379"/><path d="M154.44,243.36a34.36,34.36,0,0,1,1.1,7.64,64.82,64.82,0,0,1-.15,7.64c-.18,2.53-.48,5-.85,7.54s-.81,5-1.44,7.51a37.54,37.54,0,0,1-.92-7.65c-.06-2.56,0-5.1.22-7.62s.47-5,.79-7.52S153.9,245.91,154.44,243.36Z" transform="translate(-4.56 -88.73)" style="fill:#6cd379"/><path d="M163.44,246c-.39,2.52-1,4.91-1.64,7.29s-1.25,4.7-1.78,7a62.37,62.37,0,0,0-1.26,7,51.47,51.47,0,0,0-.32,7.31,17.11,17.11,0,0,1-2-7.36,26.51,26.51,0,0,1,.7-7.65A37.74,37.74,0,0,1,163.44,246Z" transform="translate(-4.56 -88.73)" style="fill:#6cd379"/><path d="M164.77,262.36c-.16,1.28-.34,2.34-.5,3.41s-.33,2.07-.52,3.11-.41,2.09-.7,3.17a15,15,0,0,1-1.28,3.31,9.79,9.79,0,0,1-1.08-3.46,11.89,11.89,0,0,1,.11-3.57,10,10,0,0,1,1.28-3.41A6.51,6.51,0,0,1,164.77,262.36Z" transform="translate(-4.56 -88.73)" style="fill:#6cd379"/><path d="M239.31,370a11.75,11.75,0,0,1,3.51,5,20.19,20.19,0,0,1,1.28,5.94,29.38,29.38,0,0,1-.19,5.94,32.27,32.27,0,0,1-1.26,5.81,28,28,0,0,1-1.09-5.84c-.2-1.92-.31-3.82-.45-5.69s-.29-3.71-.56-5.54A38,38,0,0,0,239.31,370Z" transform="translate(-4.56 -88.73)" style="fill:#6cd379"/><path d="M246.31,362.33a34.29,34.29,0,0,1,1.11,7.64,67,67,0,0,1-.15,7.64c-.19,2.53-.49,5-.86,7.53s-.8,5-1.43,7.52a36.2,36.2,0,0,1-.92-7.66c-.07-2.55,0-5.09.21-7.61s.47-5,.8-7.52S245.77,364.88,246.31,362.33Z" transform="translate(-4.56 -88.73)" style="fill:#6cd379"/><path d="M255.31,365c-.39,2.52-1,4.92-1.64,7.29s-1.24,4.7-1.78,7a67.22,67.22,0,0,0-1.26,7,51.4,51.4,0,0,0-.32,7.31,17.26,17.26,0,0,1-2-7.37,26.54,26.54,0,0,1,.7-7.65A37.74,37.74,0,0,1,255.31,365Z" transform="translate(-4.56 -88.73)" style="fill:#6cd379"/><path d="M256.65,381.33c-.16,1.27-.34,2.34-.51,3.4s-.33,2.08-.52,3.12-.41,2.09-.7,3.17a15.14,15.14,0,0,1-1.27,3.31,9.39,9.39,0,0,1-1.08-3.47,11.5,11.5,0,0,1,.1-3.56,10.24,10.24,0,0,1,1.28-3.41A6.48,6.48,0,0,1,256.65,381.33Z" transform="translate(-4.56 -88.73)" style="fill:#6cd379"/><path d="M311.68,366.78a11.63,11.63,0,0,1,3.5,5,20.27,20.27,0,0,1,1.29,5.95,30.15,30.15,0,0,1-.19,5.94,32.2,32.2,0,0,1-1.27,5.8,29.43,29.43,0,0,1-1.09-5.83c-.2-1.93-.31-3.83-.44-5.7s-.29-3.71-.56-5.54A39.53,39.53,0,0,0,311.68,366.78Z" transform="translate(-4.56 -88.73)" style="fill:#6cd379"/><path d="M318.68,359.11a34.36,34.36,0,0,1,1.1,7.64,64.82,64.82,0,0,1-.15,7.64c-.18,2.53-.48,5-.85,7.54s-.81,5-1.44,7.51a37.54,37.54,0,0,1-.92-7.65c-.06-2.56,0-5.1.22-7.62s.46-5,.79-7.52S318.14,361.66,318.68,359.11Z" transform="translate(-4.56 -88.73)" style="fill:#6cd379"/><path d="M327.68,361.78c-.39,2.52-1,4.91-1.64,7.29s-1.25,4.7-1.78,7a62.37,62.37,0,0,0-1.26,7,50,50,0,0,0-.32,7.31,17.11,17.11,0,0,1-2-7.36,26.86,26.86,0,0,1,.69-7.65,36.8,36.8,0,0,1,2.5-7.16A36.38,36.38,0,0,1,327.68,361.78Z" transform="translate(-4.56 -88.73)" style="fill:#6cd379"/><path d="M329,378.11c-.16,1.28-.34,2.34-.5,3.4s-.33,2.08-.52,3.12-.41,2.09-.71,3.17a14.47,14.47,0,0,1-1.27,3.31,9.78,9.78,0,0,1-1.08-3.47,11.84,11.84,0,0,1,.11-3.56,10,10,0,0,1,1.28-3.41A6.51,6.51,0,0,1,329,378.11Z" transform="translate(-4.56 -88.73)" style="fill:#6cd379"/><g style="opacity:0.5"><path d="M77,145.5c-.31-6.4,6.78-7.66,11.51-7.72-.53-5.21-1.53-9.46.3-14.7,2.29-6.9,7.89-13.36,15-15.34,6.13-2,13.72-1.12,19,2.61,6.69,4.89,6,11.06,8.27,17.9.18-4.51,7.05-5.06,10.39-3.44,4.76,2.07,6.23,5.84,6.76,10.34,3.52-2.65,6.86-.09,7.39,3.93,3.51-2.88,9.68-3.43,14-1.83,3.8,1.38,7.67,7.73,10.05,8.41Z" transform="translate(-4.56 -88.73)" style="fill:#c3eafb"/><path d="M429.7,194.68c.25-6.26-6.7-7.44-11.34-7.46.48-5.1,1.42-9.27-.42-14.38-2.3-6.73-7.84-13-14.79-14.88-6-1.87-13.45-1-18.55,2.72-6.52,4.85-5.84,10.88-7.94,17.6-.22-4.41-7-4.89-10.2-3.28-4.64,2.07-6,5.77-6.52,10.18-3.47-2.56-6.73,0-7.21,3.92-3.46-2.79-9.5-3.28-13.67-1.67-3.71,1.38-7.44,7.64-9.76,8.32Z" transform="translate(-4.56 -88.73)" style="fill:#c3eafb"/></g><path d="M386.08,308.88c0,.74-1.47,1.33-3.29,1.33s-3.29-.59-3.29-1.33,1.47-1.33,3.29-1.33S386.08,308.14,386.08,308.88Z" transform="translate(-4.56 -88.73)" style="fill:#e2bb91"/><path d="M389.5,305.38c0,.37-.77.67-1.71.67s-1.71-.3-1.71-.67.77-.67,1.71-.67S389.5,305,389.5,305.38Z" transform="translate(-4.56 -88.73)" style="fill:#e2bb91"/><path d="M394.19,304.21c0,.28-.4.5-.89.5s-.9-.22-.9-.5.4-.5.9-.5S394.19,303.94,394.19,304.21Z" transform="translate(-4.56 -88.73)" style="fill:#e2bb91"/><path d="M393.3,311.49c0,.71-1,1.28-2.23,1.28s-2.24-.57-2.24-1.28,1-1.28,2.24-1.28S393.3,310.79,393.3,311.49Z" transform="translate(-4.56 -88.73)" style="fill:#e2bb91"/><path d="M400.5,298c0,.69-1.19,1.25-2.67,1.25s-2.66-.56-2.66-1.25,1.19-1.25,2.66-1.25S400.5,297.27,400.5,298Z" transform="translate(-4.56 -88.73)" style="fill:#e2bb91"/><path d="M314.49,270.31c0,.77-1.16,1.4-2.58,1.4s-2.58-.63-2.58-1.4,1.16-1.41,2.58-1.41S314.49,269.53,314.49,270.31Z" transform="translate(-4.56 -88.73)" style="fill:#e2bb91"/><path d="M321.5,268.06c0,.46-1.27.84-2.83.84s-2.84-.38-2.84-.84,1.27-.85,2.84-.85S321.5,267.59,321.5,268.06Z" transform="translate(-4.56 -88.73)" style="fill:#e2bb91"/><path d="M323.08,272.88c0,.64-1,1.16-2.21,1.16s-2.2-.52-2.2-1.16,1-1.17,2.2-1.17S323.08,272.24,323.08,272.88Z" transform="translate(-4.56 -88.73)" style="fill:#e2bb91"/><path d="M306.05,271c0,.39-1.31.7-2.92.7s-2.92-.31-2.92-.7,1.31-.7,2.92-.7S306.05,270.62,306.05,271Z" transform="translate(-4.56 -88.73)" style="fill:#e2bb91"/><path d="M310.27,275.88c0,.55-.71,1-1.59,1s-1.58-.45-1.58-1,.71-1,1.58-1S310.27,275.33,310.27,275.88Z" transform="translate(-4.56 -88.73)" style="fill:#e2bb91"/><ellipse cx="295.19" cy="186.65" rx="1.42" ry="0.5" style="fill:#e2bb91"/><path d="M386.08,308.88c0,.74-1.47,1.33-3.29,1.33s-3.29-.59-3.29-1.33,1.47-1.33,3.29-1.33S386.08,308.14,386.08,308.88Z" transform="translate(-4.56 -88.73)" style="fill:#e2bb91"/><path d="M389.5,305.38c0,.37-.77.67-1.71.67s-1.71-.3-1.71-.67.77-.67,1.71-.67S389.5,305,389.5,305.38Z" transform="translate(-4.56 -88.73)" style="fill:#e2bb91"/><path d="M394.19,304.21c0,.28-.4.5-.89.5s-.9-.22-.9-.5.4-.5.9-.5S394.19,303.94,394.19,304.21Z" transform="translate(-4.56 -88.73)" style="fill:#e2bb91"/><path d="M393.3,311.49c0,.71-1,1.28-2.23,1.28s-2.24-.57-2.24-1.28,1-1.28,2.24-1.28S393.3,310.79,393.3,311.49Z" transform="translate(-4.56 -88.73)" style="fill:#e2bb91"/><path d="M400.5,298c0,.69-1.19,1.25-2.67,1.25s-2.66-.56-2.66-1.25,1.19-1.25,2.66-1.25S400.5,297.27,400.5,298Z" transform="translate(-4.56 -88.73)" style="fill:#e2bb91"/><path d="M314.49,270.31c0,.77-1.16,1.4-2.58,1.4s-2.58-.63-2.58-1.4,1.16-1.41,2.58-1.41S314.49,269.53,314.49,270.31Z" transform="translate(-4.56 -88.73)" style="fill:#e2bb91"/><path d="M321.5,268.06c0,.46-1.27.84-2.83.84s-2.84-.38-2.84-.84,1.27-.85,2.84-.85S321.5,267.59,321.5,268.06Z" transform="translate(-4.56 -88.73)" style="fill:#e2bb91"/><path d="M323.08,272.88c0,.64-1,1.16-2.21,1.16s-2.2-.52-2.2-1.16,1-1.17,2.2-1.17S323.08,272.24,323.08,272.88Z" transform="translate(-4.56 -88.73)" style="fill:#e2bb91"/><path d="M306.05,271c0,.39-1.31.7-2.92.7s-2.92-.31-2.92-.7,1.31-.7,2.92-.7S306.05,270.62,306.05,271Z" transform="translate(-4.56 -88.73)" style="fill:#e2bb91"/><path d="M310.27,275.88c0,.55-.71,1-1.59,1s-1.58-.45-1.58-1,.71-1,1.58-1S310.27,275.33,310.27,275.88Z" transform="translate(-4.56 -88.73)" style="fill:#e2bb91"/><ellipse cx="295.19" cy="186.65" rx="1.42" ry="0.5" style="fill:#e2bb91"/><path d="M348.74,253.85c1.47-1.8.16-5.57,1.88-7.19,1.68-1.84,3.91-.45,5.92-.35,2.48.25,4.78-.59,7.33-1.25,10.87-2.52,21.25-2.74,31.37,3.29,4.76,3.18,8.19,7.69,11.8,12,2.23,2.73,3.45,2.07,6.55,3.32,3.38,1.64,2.67,4-.49,5-4.62,1.45-8.93,2.19-13.45,4.29-4.48,2.32-9.68,5.64-12,10.47-1.14,2.41-1.27,5.54-3.89,7.09-3.25,2-8.95,1.7-12.65,2a56.24,56.24,0,0,1-14.08-.49c-11.17-2.07-19.44-5.19-25.91-15.09-3-4.59-4.22-11.7-.82-16.49,2.53-3.31,9.5-5.39,13.63-5.87Z" transform="translate(-4.56 -88.73)" style="fill:#af9f95"/><path d="M378.46,289.19c3.7-1.17,4.27-4.95,3.93-9.35-.31-3.92-2.95-7.56-5.59-10.25-8.18-8.52-19.07-11.71-30.49-11.41-4,.24-11.15.47-13.5,4.73-1.78,3.87-.26,11.27,2.1,14.62,6.78,9.66,17.17,12.48,27.79,12.67C366.28,290.26,373.33,290.8,378.46,289.19Z" transform="translate(-4.56 -88.73)" style="fill:#917f73"/><path d="M353.77,253.44a9.11,9.11,0,0,1,4.83.14,32.33,32.33,0,0,1,4.62,1.6c1.49.65,3,1.24,4.47,2a36.67,36.67,0,0,1,4.24,2.48,42.42,42.42,0,0,1,7.36,6.48,87.81,87.81,0,0,1,6.08,7.67l-.82.21c.32-2.79-.93-5.55-2.54-7.89a38.11,38.11,0,0,0-5.84-6.41,31.67,31.67,0,0,0-7.07-5,26.48,26.48,0,0,0-8.18-2.73l-2.32-.34,2.29-.49a12.33,12.33,0,0,1,4-.1,27.29,27.29,0,0,1,3.83.75,26.83,26.83,0,0,1,7.17,3,30.38,30.38,0,0,1,6,4.92,20,20,0,0,1,4.25,6.41,20.73,20.73,0,0,0-4.46-6.19,32.55,32.55,0,0,0-6-4.68,26.15,26.15,0,0,0-7.07-2.77,17.42,17.42,0,0,0-7.43-.5l0-.84a27.49,27.49,0,0,1,8.48,2.76,32.79,32.79,0,0,1,7.3,5.08,36.46,36.46,0,0,1,6,6.59,17.71,17.71,0,0,1,2.07,4,10.11,10.11,0,0,1,.57,4.54l-.15,1.15-.67-.94c-3.76-5.25-7.78-10.42-13.06-14.17a36,36,0,0,0-4.12-2.52c-1.42-.74-2.92-1.41-4.38-2.1a32.17,32.17,0,0,0-4.52-1.74A9.25,9.25,0,0,0,353.77,253.44Z" transform="translate(-4.56 -88.73)" style="fill:#917f73"/><g style="clip-path:url(#clip-path-2)"><path d="M288.23,289.07c.09-1.28,1.79-1.78,2.8-1.42-1.69-1.29,2.83-2.48,4-1.84,1-1.74,3.79-2.95,5.43-1.35.72-1.9,2.85-3,4.63-1.73.95-1.21,2.31-2.49,3.72-1,.89-1,2.31-1.86,3.55-.71-.51-1.8,2.14-1.63,2.93-.71C314,278,317,278.28,318.4,279c-.57-.85.08-1.38.89-1.52s1.2.22,1.91.72c0-1.78,2.8-2.05,3.67-.62,0-2.72,1.59-3.63,3.79-1.8.31-1.84,2.86-2.28,4-.9-.21-1.77,1-2.31,2.47-1.94l.27-.66c-.37-1.09-.25-2.19,1.07-2.17.18-.34.39-.68.59-1,0-1,.34-1.8,1.33-1.8.3-.35.62-.69.95-1a2.64,2.64,0,0,1,2.85-2.17l.39-.24c0-1.59.39-1.69,1.86-2.34.29-.15.44.14.63,0s.32-.58.61-.73c.47-.29,1.15-.62,1.65-.18.43-1.12,3-2.09,4-1.21.08-1.37,1.57-1.21,2.49-1.37a19.76,19.76,0,0,1,3.4-1,13.66,13.66,0,0,1,5.69,1c1.74.36,3.32,1.16,3.74,2.61,0,0,0,.08,0,.12l14.48,12.3c.58,1,.79,2.18-.67,2.22,1.77.53,1.67,2.44.39,3.5a2,2,0,0,1,.38,3.5c2.15.26,2.36,2.74.74,4.28,2.37-.83,2.25,2.13,1.2,3.36,1.39-.45,4.49.49,2.73,2.47,1.43-.24,2.82-.69,3.67.63a1.65,1.65,0,0,1-1.21,2.73c3.47.66,1.24,3.56-1.62,2.79.72,1.77-1.79,3-3.22,2,.62,2.41-2,1.81-3,2-.21,0-.72-.5-1.13-.43s-.67.95-1.08,1c-1,.18-1.36.65-2.28.18,1,2.14-3,2.19-4.21,1.14a2,2,0,0,1-3.6,1c-1.22,1.11-2.15.93-2.87.09-.67,1.5-2.56,2.39-3.72.62-.47,1.55-3.39,2.89-4,.68-.77.86-3.61,2.16-4.33.87,0,1.47-2.39,1.54-3.33.33.16,2.18-3,1.46-3.13-.51-.49,2.07-2.66,1.61-2.88-.25-.35,1.64-2.93,1.24-3.38-.15.19,1.12-1.37,1.81-2.26,1.54a2.63,2.63,0,0,1-1.45-2.38c0,2.31-3.07,1-2.82-.56-1.39,1.7-3.25.65-2.88-1.51-.59,1.47-2.11,1.2-2.72.05.48,2.22-2.25,2.8-3.21.86.17,1,.36,2.14-1,2.16-1.14.09-2-1.23-2.25-2.13-.08,2-2.41,1.25-3.14,0a2,2,0,0,1-.22-.66,3.19,3.19,0,0,1-.59.28c-.9.26-2.77-.27-1.7-1.39a5.91,5.91,0,0,1-2.91.81c-.9-.14-1.84-1.08-.85-1.49-1.27.36-5.37.84-3.56-1a3.67,3.67,0,0,1-2.89.91c-.88-.27-1.92-1.45-1-2.24-.88.36-1.75.83-2.43-.11a1,1,0,0,1,.44-1.75c-1.06,0-2.45.42-3.42-.36-1.21-1-.6-1.68.58-2.09-2.22-.15-2.66-2.07-.38-2.88-1.46,0-3-1.89-1.19-2.63-1.3.33-3,.83-3.5-.87-1,1.33-3.36,1.84-3.83-.29C290.58,289.93,288.08,291.3,288.23,289.07Z" transform="translate(-4.56 -88.73)" style="fill:#e2bb91"/><path d="M345.5,274.63c0,1-1.29,1.75-2.88,1.75s-2.87-.78-2.87-1.75,1.29-1.75,2.87-1.75S345.5,273.66,345.5,274.63Z" transform="translate(-4.56 -88.73)" style="fill:#c96"/><path d="M352,274.71c0,.37-.75.67-1.67.67s-1.66-.3-1.66-.67.74-.67,1.66-.67S352,274.34,352,274.71Z" transform="translate(-4.56 -88.73)" style="fill:#c96"/><path d="M353.77,279.73c0,.64-.77,1.15-1.72,1.15s-1.72-.51-1.72-1.15.77-1.14,1.72-1.14S353.77,279.1,353.77,279.73Z" transform="translate(-4.56 -88.73)" style="fill:#c96"/><path d="M350.33,286.62c0,.61-.37,1.09-.83,1.09s-.83-.48-.83-1.09a.86.86,0,1,1,1.66,0Z" transform="translate(-4.56 -88.73)" style="fill:#c96"/><path d="M336.66,282.93c0,.22-.63.39-1.41.39s-1.42-.17-1.42-.39.64-.38,1.42-.38S336.66,282.72,336.66,282.93Z" transform="translate(-4.56 -88.73)" style="fill:#c96"/><path d="M342.63,280.79c0,.42-.85.76-1.9.76s-1.9-.34-1.9-.76.85-.76,1.9-.76S342.63,280.37,342.63,280.79Z" transform="translate(-4.56 -88.73)" style="fill:#c96"/><path d="M369.92,279.17c0,.89-1.14,1.62-2.54,1.62s-2.55-.73-2.55-1.62,1.14-1.62,2.55-1.62S369.92,278.27,369.92,279.17Z" transform="translate(-4.56 -88.73)" style="fill:#c96"/><path d="M374.33,283.13c0,.1-.3.19-.66.19s-.67-.09-.67-.19.3-.2.67-.2S374.33,283,374.33,283.13Z" transform="translate(-4.56 -88.73)" style="fill:#c96"/><path d="M377.67,278.36c0,.44-.75.81-1.67.81s-1.67-.37-1.67-.81.75-.81,1.67-.81S377.67,277.91,377.67,278.36Z" transform="translate(-4.56 -88.73)" style="fill:#c96"/><path d="M366.33,272.71c0,.74-1.15,1.33-2.58,1.33s-2.58-.59-2.58-1.33,1.15-1.33,2.58-1.33S366.33,272,366.33,272.71Z" transform="translate(-4.56 -88.73)" style="fill:#c96"/><path d="M368.83,284.43c0,.61-.74,1.1-1.66,1.1s-1.67-.49-1.67-1.1.75-1.11,1.67-1.11S368.83,283.81,368.83,284.43Z" transform="translate(-4.56 -88.73)" style="fill:#c96"/><path d="M372.05,292.55c0,.83-1,1.51-2.33,1.51s-2.34-.68-2.34-1.51,1.05-1.51,2.34-1.51S372.05,291.72,372.05,292.55Z" transform="translate(-4.56 -88.73)" style="fill:#c96"/><path d="M361.17,276.46a1.47,1.47,0,1,1-1.42-1.08A1.29,1.29,0,0,1,361.17,276.46Z" transform="translate(-4.56 -88.73)" style="fill:#c96"/><path d="M359,271.63a1.26,1.26,0,1,1-1.25-1.08A1.17,1.17,0,0,1,359,271.63Z" transform="translate(-4.56 -88.73)" style="fill:#c96"/><path d="M317,285.5c0,.6-.8,1.08-1.78,1.08s-1.77-.48-1.77-1.08.79-1.07,1.77-1.07S317,284.91,317,285.5Z" transform="translate(-4.56 -88.73)" style="fill:#c96"/><path d="M322,284.39c0,.59-.78,1.08-1.75,1.08s-1.75-.49-1.75-1.08.78-1.07,1.75-1.07S322,283.8,322,284.39Z" transform="translate(-4.56 -88.73)" style="fill:#c96"/><path d="M328.29,290c0,.6-.7,1.08-1.56,1.08s-1.56-.48-1.56-1.08.7-1.08,1.56-1.08S328.29,289.36,328.29,290Z" transform="translate(-4.56 -88.73)" style="fill:#c96"/><path d="M324.17,295.8c0,.23-.49.41-1.09.41S322,296,322,295.8s.49-.42,1.08-.42S324.17,295.57,324.17,295.8Z" transform="translate(-4.56 -88.73)" style="fill:#c96"/><path d="M313.86,291.24c0,.5-.86.91-1.91.91s-1.92-.41-1.92-.91.86-.91,1.92-.91S313.86,290.74,313.86,291.24Z" transform="translate(-4.56 -88.73)" style="fill:#c96"/><path d="M320.25,291.8c0,.41-.73.75-1.64.75s-1.63-.34-1.63-.75.73-.76,1.63-.76S320.25,291.38,320.25,291.8Z" transform="translate(-4.56 -88.73)" style="fill:#c96"/><path d="M317,296.85c0,.35-.7.63-1.56.63s-1.56-.28-1.56-.63.7-.64,1.56-.64S317,296.5,317,296.85Z" transform="translate(-4.56 -88.73)" style="fill:#c96"/><path d="M307.1,287c0,.81-1.08,1.46-2.41,1.46s-2.42-.65-2.42-1.46,1.08-1.46,2.42-1.46S307.1,286.19,307.1,287Z" transform="translate(-4.56 -88.73)" style="fill:#c96"/><path d="M344.67,302.3c0,.5-.88.91-2,.91s-2-.41-2-.91.88-.92,2-.92S344.67,301.79,344.67,302.3Z" transform="translate(-4.56 -88.73)" style="fill:#c96"/><path d="M336.66,300.6c0,.43-.48.78-1.08.78s-1.08-.35-1.08-.78.48-.77,1.08-.77S336.66,300.18,336.66,300.6Z" transform="translate(-4.56 -88.73)" style="fill:#c96"/><path d="M340.73,297.16c0,.18-.91.32-2,.32s-2-.14-2-.32.91-.31,2-.31S340.73,297,340.73,297.16Z" transform="translate(-4.56 -88.73)" style="fill:#c96"/><path d="M349.5,295.47c0,.41-.71.74-1.58.74s-1.59-.33-1.59-.74.71-.74,1.59-.74S349.5,295.07,349.5,295.47Z" transform="translate(-4.56 -88.73)" style="fill:#c96"/><path d="M353.46,300.22c0,.21-.37.38-.83.38s-.83-.17-.83-.38.37-.39.83-.39S353.46,300,353.46,300.22Z" transform="translate(-4.56 -88.73)" style="fill:#c96"/><ellipse cx="337.15" cy="201.23" rx="1.96" ry="1.08" style="fill:#c96"/><path d="M359,291.42c0,.21-.28.38-.62.38s-.63-.17-.63-.38.28-.38.63-.38S359,291.21,359,291.42Z" transform="translate(-4.56 -88.73)" style="fill:#c96"/><path d="M364.83,296.85c0,.35-.48.63-1.08.63s-1.08-.28-1.08-.63.48-.64,1.08-.64S364.83,296.5,364.83,296.85Z" transform="translate(-4.56 -88.73)" style="fill:#c96"/><path d="M365.5,287.94c0,.52-.63.94-1.42.94s-1.41-.42-1.41-.94.63-.95,1.41-.95S365.5,287.41,365.5,287.94Z" transform="translate(-4.56 -88.73)" style="fill:#c96"/><path d="M361.17,285.5a1.44,1.44,0,1,1-1.4-1.07A1.27,1.27,0,0,1,361.17,285.5Z" transform="translate(-4.56 -88.73)" style="fill:#c96"/><path d="M330.5,280c0,.44-.84.81-1.89.81s-1.88-.37-1.88-.81.84-.81,1.88-.81S330.5,279.53,330.5,280Z" transform="translate(-4.56 -88.73)" style="fill:#c96"/><path d="M325.17,301.84c0,.25-.47.46-1,.46s-1.05-.21-1.05-.46.47-.46,1.05-.46S325.17,301.59,325.17,301.84Z" transform="translate(-4.56 -88.73)" style="fill:#c96"/><path d="M328.61,300c0,.11-.58.2-1.3.2s-1.31-.09-1.31-.2.59-.19,1.31-.19S328.61,299.91,328.61,300Z" transform="translate(-4.56 -88.73)" style="fill:#c96"/><path d="M309.33,296.85c0,.35-.73.63-1.64.63s-1.64-.28-1.64-.63.73-.64,1.64-.64S309.33,296.5,309.33,296.85Z" transform="translate(-4.56 -88.73)" style="fill:#c96"/><path d="M362.67,301.46c0,.48-.82.86-1.84.86s-1.83-.38-1.83-.86.82-.86,1.83-.86S362.67,301,362.67,301.46Z" transform="translate(-4.56 -88.73)" style="fill:#c96"/><path d="M373.67,299.83c0,.43-.84.77-1.87.77s-1.88-.34-1.88-.77.84-.78,1.88-.78S373.67,299.4,373.67,299.83Z" transform="translate(-4.56 -88.73)" style="fill:#c96"/><path d="M381,291.79c0,.42-.48.76-1.08.76s-1.09-.34-1.09-.76.49-.75,1.09-.75S381,291.38,381,291.79Z" transform="translate(-4.56 -88.73)" style="fill:#c96"/><path d="M383.67,296.69c0,.26-.6.47-1.34.47S381,297,381,296.69s.6-.48,1.33-.48S383.67,296.43,383.67,296.69Z" transform="translate(-4.56 -88.73)" style="fill:#c96"/></g></g><g id="OBJECTS"><g style="opacity:0.5;mix-blend-mode:multiply"><path d="M253.12,304.58c-7.7-1.52-73.62-11.48-67.08,6,1,2.57,2.58,2.57.65,4.83-1.61,1.6-5.79,1.93-7.72,2.25-4.51.64-10,1-12.55,5.47-11.25,19.61,33.45,34.41,45.67,38.27,18.66,5.79,36.67,11.25,56.29,12.54a55.28,55.28,0,0,0,12.54-.32c5.14-.64,7.72-2.57,11.9-5.15,7.08-4.5,17.37,1,25.41.65,7.39-.33,20.58-2.58,24.44-10.3,5.14-10.29-12.86-15.11-18.65-19-4.51-3.22-1-7.72-5.47-10.94a122,122,0,0,0-34.15-16.3C274.07,309.58,263.67,306.67,253.12,304.58Z" transform="translate(-4.56 -88.73)" style="fill:#917f73"/></g><path d="M255.23,338.71c-2.25.25-2,2.75-2,4.75,0,3.25-.25,4.5,2.75,5.75,2.5.75,5,1.25,7.25.5,1.25-.5,1.5-2,2.75-1.75,2,.25,1.5,2.25,2.25,3.25,2,2,4.75,2.5,7.5,2.75a41.78,41.78,0,0,0,15.75-.5c2.75-.75,7-4,4.75-7.75-1.75-2.75-7.75,0-10.75,0-4,.25-7.25-1-10.75-2.5-3-1.25-6-3.5-9.5-3.25Z" transform="translate(-4.56 -88.73)" style="fill:#ccb36d"/><path d="M252.73,295.46s.75,15.5,1.25,23.25c.25,2.75.25,5.25.25,8s-1,4.75-1.25,7.5c-.25,2-.5,5.5.75,6.75,1.5,1.75,5.75,2.25,8,2.5,1,.25,3-.25,4.25.25,1.5.5,2.75,2.25,4.5,3,2.75,1.25,6.5,1.5,9.5,1.5,5,0,15-.55,15.75-3.25.44-7.46-4-8.5-9-10.5-2.5-1.25-5.75-1.5-7.5-4-1.25-2.25-1-5.75-1.25-8.25-.75-5.5-1-11-1.25-16.5-.25-3,.25-13,.25-13Z" transform="translate(-4.56 -88.73)" style="fill:#ffe576"/><path d="M201.31,338.79c0,2.67-.83,5.83-.66,8.5.16,2,1.5,3,3.5,3.17,2.66.33,2.83,0,4.66,2.33,3,4,5.67,6.17,10.84,6.5a63.6,63.6,0,0,0,11.33.33c2.5-.33,7.17-.83,8.83-2.66,2.5-2.5,1.5-7-2.33-5.67-3.67,1.5-8.5,3.83-11.83.5-1.84-1.83-1.17-4.33-2.34-6.17-1.33-2-4.16-2.33-6.16-3Z" transform="translate(-4.56 -88.73)" style="fill:#ccb36d"/><path d="M203.48,293.12c0,7.67-.17,15.34-.5,22.84-.17,4-.67,7.83-.67,11.66,0,4-1.5,7-1.5,10.84,0,.83-.5,3.83,0,4.5.84,1.16,3.5.83,4.67,1.33,1.83.83,2.67,3,4,4.67a19.06,19.06,0,0,0,4.83,4.16c6.67,4.17,14.34,3.84,21.67,1.5a9.88,9.88,0,0,0,4.33-3c.87-6.81-2.83-8.14-6.66-10.14-3.67-1.84-8.34-4-9.17-8.5-.83-4,0-8.84.33-12.84.67-9,.84-18.33,2.17-27.33Z" transform="translate(-4.56 -88.73)" style="fill:#ffe576"/><path d="M204,205.71c2.5,12,1.5,24.75,1.5,37,0,5.25-.25,10.25-.25,15.5-.25,2.5-.5,5-.5,7.5,0,4.25-1.5,4.25-3.5,7.75-3,5.75,4,8.75,1.25,14-1.5,3-4,4.5-.5,7.25a17.7,17.7,0,0,0,8,2.5,52,52,0,0,0,16.5-.75c3-.75,5.75-1.5,4.5-5-.25-1-2-2.25-1.75-3.25.5-1.75,3-1.75,3.25-3.75.25-2.5-2.75-3.75-2.5-6.5.25-1.75,2-4.5,2.5-6.5,1.25-5,5.37-39,6.87-42.75,0,0,11.13,50.5,11.13,51.75-.25,2.5-1.25,1.25-2.5,3-1.25,1.5-1.25,2.5,0,3.75,1.5,1.75,2.25-.25,1.75,2.5-.5,3.5-3.25,4.5,1.25,6.5,4.75,2.25,11,1.75,16,1.25,3.5-.25,13.75.5,15-4,.75-3-3.25-4.5-2.75-7.5.25-1.5,1.5-1.75,1-3.75-.5-1.75-2.75-2.25-3.75-4-1.75-4-.5-11.5-.75-15.75a90.05,90.05,0,0,0-3-16c-1.5-5-1.25-10-1.75-15.25-1-10-3.5-20-5.5-29.75Z" transform="translate(-4.56 -88.73)" style="fill:#cdaa80"/><path d="M224.48,278.21a13.08,13.08,0,0,1-4.11,1.49,25.66,25.66,0,0,1-4.36.43,58.32,58.32,0,0,1-8.66-.67,76.07,76.07,0,0,1,8.64-.33A35.29,35.29,0,0,0,224.48,278.21Z" transform="translate(-4.56 -88.73)" style="fill:#967654"/><path d="M208.1,282.71a4,4,0,0,0,2,1.22,15.54,15.54,0,0,0,2.34.53c1.59.23,3.18.31,4.8.46h0c3.23.07,6.47-.27,9.76-.15l.42,0v.42a2,2,0,0,1-1,1.56,6.67,6.67,0,0,1-1.41.76,18.76,18.76,0,0,1-2.95.88,21.06,21.06,0,0,1-6.08.45,35.15,35.15,0,0,1-6-.94,11.08,11.08,0,0,0-1.41-.34,2.27,2.27,0,0,0-.62,0c-.1,0-.11,0-.13,0a.47.47,0,0,0-.1.11c-.09.1.13.54.45.84a5.36,5.36,0,0,0,1.08.83l0,0h0a15.58,15.58,0,0,0,7.16,2.35,38.5,38.5,0,0,0,7.74,0,34.39,34.39,0,0,1-7.79.51,16.11,16.11,0,0,1-7.56-2.18l0,0a5.12,5.12,0,0,1-1.32-.94,3.33,3.33,0,0,1-.53-.68,1.25,1.25,0,0,1-.12-1.09,1.21,1.21,0,0,1,.36-.46,1.05,1.05,0,0,1,.56-.22,3.51,3.51,0,0,1,.87,0,13.35,13.35,0,0,1,1.51.35,34.15,34.15,0,0,0,5.82.83,22.32,22.32,0,0,0,5.83-.4,17.5,17.5,0,0,0,2.79-.8,5.28,5.28,0,0,0,1.23-.63c.36-.25.63-.57.62-.84l.42.43c-3.21-.12-6.47,0-9.74-.14h0c-1.58-.19-3.21-.36-4.79-.71a14.26,14.26,0,0,1-2.34-.67A4,4,0,0,1,208.1,282.71Z" transform="translate(-4.56 -88.73)" style="fill:#967654"/><path d="M272.1,278.08a31.58,31.58,0,0,1-5,1.52c-1.7.39-3.41.68-5.13.9h0a20.24,20.24,0,0,1-2.14.23c-.7,0-1.4.11-2.08.2a9.28,9.28,0,0,0-1.95.49,2.57,2.57,0,0,0-1.37,1.11l-.24-.59a17.6,17.6,0,0,0,5.46.66c1.86,0,3.81,0,5.69.16s3.77.18,5.68.5a10.79,10.79,0,0,1,2.84.81,7,7,0,0,1,.67.34,1.53,1.53,0,0,1,.72.68.79.79,0,0,1-.13.76,2.07,2.07,0,0,1-.34.33,6.81,6.81,0,0,1-.64.41h0a20.92,20.92,0,0,1-5,1.35c-1.62.36-3.27.84-5,1.13a15.87,15.87,0,0,1-2.57.25,12.86,12.86,0,0,1-2.56-.27c-1.68-.31-3.3-.81-5-1a42.34,42.34,0,0,1,5,.65,13.85,13.85,0,0,0,5-.22c1.65-.34,3.23-.87,4.9-1.3a23.61,23.61,0,0,0,4.77-1.4l0,0c.19-.12.39-.24.55-.36a1.42,1.42,0,0,0,.17-.16c0-.06,0,0,0,.1a2.48,2.48,0,0,0-.34-.23c-.19-.11-.4-.21-.6-.3a10.14,10.14,0,0,0-2.61-.7c-1.82-.29-3.7-.29-5.6-.44a52.87,52.87,0,0,0-5.64-.22,18.23,18.23,0,0,1-5.73-.79l-.46-.16.22-.43a3.24,3.24,0,0,1,1.84-1.48,9.27,9.27,0,0,1,2.16-.46c1.43-.17,2.87-.1,4.2-.28h0A50.08,50.08,0,0,0,272.1,278.08Z" transform="translate(-4.56 -88.73)" style="fill:#967654"/><path d="M254.6,290.83a16.25,16.25,0,0,0,5.28.64c.89,0,1.79,0,2.7,0l2.68.1a39.16,39.16,0,0,0,5.31-.12,18,18,0,0,0,5.16-1.26,12.63,12.63,0,0,1-5.05,2,25.57,25.57,0,0,1-5.45.35c-1.82-.08-3.58-.22-5.39-.34A11.83,11.83,0,0,1,254.6,290.83Z" transform="translate(-4.56 -88.73)" style="fill:#967654"/><path d="M289.08,176.39s.07,22.26,1.4,24.82c4.45,8.58,14.33,23.08,17.67,30.08,3.33,6-3,14.33,7,16.67,3.33.66,9-.34,9.33-4.34.33-3.66-3.67-5.66-5.33-8.66-3.34-6-13.92-30.79-15.25-37.13s-1.42-17.21-1.42-23.54Z" transform="translate(-4.56 -88.73)" style="fill:#f7a87f"/><path d="M291.08,138.24c7.23,9.38,11.15,14.47,12.15,24,.25,3.25,0,5,1.75,7.75a23.87,23.87,0,0,1,3,4c1,2.25,1.5,1.5-.5,3.25-3.5,3.25-12.75,3.5-17.5,3.75a58.71,58.71,0,0,1-6.75.25c-.25-1.75.5-3,.5-4.5a14.8,14.8,0,0,0-1.25-4.75,58.94,58.94,0,0,1-.5-9.25Z" transform="translate(-4.56 -88.73)" style="fill:#2a495e"/><path d="M299.17,168.87c-1,.34-1.95.62-2.93.9s-2,.59-2.92.9a22,22,0,0,0-2.8,1.11,8.15,8.15,0,0,0-2.38,1.67l-.16-.69a18.57,18.57,0,0,0,6.8.47,26.83,26.83,0,0,1,7.15.15l.45.09-.07.44a1.6,1.6,0,0,1-.85,1.11,5.9,5.9,0,0,1-1,.46,13.69,13.69,0,0,1-2.06.49c-1.39.21-2.72.36-4.1.52a18.17,18.17,0,0,1-4.17,0,10.35,10.35,0,0,1-3.92-1.28,11.39,11.39,0,0,0,4,.89,21.06,21.06,0,0,0,4-.27c1.34-.23,2.72-.46,4-.73a13.31,13.31,0,0,0,1.93-.5,4.57,4.57,0,0,0,.83-.4c.24-.15.41-.34.4-.44l.37.53a28.77,28.77,0,0,0-6.89-.11,18.16,18.16,0,0,1-7.15-.66l-.63-.23.47-.46a8.66,8.66,0,0,1,2.7-1.7,21.22,21.22,0,0,1,2.94-1c1-.27,2-.47,3-.67Z" transform="translate(-4.56 -88.73)" style="fill:#3c697c"/><path d="M199.81,205.79c1.67.83,4,1,6,1.33a62.7,62.7,0,0,0,12.5,1.34c10.17.33,20.67.66,30.84.16,7-.33,13.5-3,20.33-4.16-.5-3.84-4.67-7.17-5.33-11.17-.67-2.83,2.33-1.67,3.66-4s-1.33-4.67-2.66-6.33c-2-2.5.66-3.34,2.83-5,2-1.5,3.83-3,5.83-4.5,3.84-2.84,7-6.17,10.5-9.17,6-5,15-12,10.5-20.5-4.5-8.33-12.83-15.33-22.16-17-8.5-1.5-17.84,0-26,2.17-8.5,2.33-16.17,5.91-22.84,12.25-6.5,6.5-12,12.41-15.33,20.91a117,117,0,0,0-4.5,12,31.49,31.49,0,0,0-1.17,5.67c-.33,2.67-1.33,3.5-2.66,5.67-2.34,3.66,1.66,5.83,1.16,9.5-.33,2-1.5,5-1.83,6.66Z" transform="translate(-4.56 -88.73)" style="fill:#3c697c"/><path d="M277.31,152.79c-1.66.67-2.5,1.67-4.16,2.17-3.67.83-6.84.66-10-1.5-7.84-5.34-5.84-19.34,3.33-22,4.83-1.5,11,.33,14,4.5a11.35,11.35,0,0,1,2,7.33c-.17,1.83-.83,5.83-2.67,6.67Z" transform="translate(-4.56 -88.73)" style="fill:#dd7a66"/><path d="M257.31,183.12a39.53,39.53,0,0,1-6.19,1.47,61.17,61.17,0,0,1-6.34.56c-4.24.18-8.49,0-12.72-.07-2.11,0-4.23,0-6.33,0-1.06,0-2.1.12-3.15.2s-2.15.06-3.16.19-2.07.44-1.9,1.22a1.45,1.45,0,0,0,.06.3l.12.25a2.2,2.2,0,0,0,.45.47,5.54,5.54,0,0,0,1.27.7,25.11,25.11,0,0,0,6.08,1.28,108.75,108.75,0,0,0,12.64.45q3.17-.08,6.32-.29c1-.07,2.1-.16,3.16-.25l1.55-.16,1.54-.29a28.58,28.58,0,0,1,6.43-.64,6,6,0,0,1,1.68.3,2,2,0,0,1,1.39,1.36,2.39,2.39,0,0,1-.45,1.86,4.59,4.59,0,0,1-1.3,1.16,19.49,19.49,0,0,1-6.12,2.13c-2.09.44-4.22.7-6.31,1h0a66.42,66.42,0,0,1-16.34,1,35.47,35.47,0,0,1-8.07-1.42c-2.63-.73-5.21-1.61-7.84-2.32,2.66.61,5.27,1.41,7.9,2.07a35.35,35.35,0,0,0,8,1.2,66.81,66.81,0,0,0,16.17-1.3h0c2.1-.28,4.18-.59,6.23-1a18.8,18.8,0,0,0,5.82-2c.84-.51,1.51-1.32,1.36-2.08a1.13,1.13,0,0,0-.82-.71,5.86,5.86,0,0,0-1.44-.24,27.93,27.93,0,0,0-6.19.67l-1.58.3-1.6.17c-1.06.1-2.12.2-3.18.28-2.12.16-4.25.25-6.37.28a106.45,106.45,0,0,1-12.75-.53,25.34,25.34,0,0,1-6.32-1.37,5.84,5.84,0,0,1-1.49-.84,2.94,2.94,0,0,1-.63-.68c-.08-.15-.15-.3-.22-.46a4,4,0,0,1-.09-.48,1.84,1.84,0,0,1,.22-1,2.1,2.1,0,0,1,.77-.66,5,5,0,0,1,1.67-.44c1.1-.11,2.18,0,3.19-.13s2.13-.14,3.19-.15c2.13-.06,4.26,0,6.38,0,4.24.13,8.46.37,12.69.33a60.77,60.77,0,0,0,6.33-.4A42.72,42.72,0,0,0,257.31,183.12Z" transform="translate(-4.56 -88.73)" style="fill:#2a495e"/><path d="M231.48,174.79c.83,7.5.67,15.17.67,22.67,0,1.5-.34,3.5,0,4.83.5,2,2.16,3.33,3.66,4.67a54.1,54.1,0,0,0,9.5,7.83c6.5,4.17,13,9.33,20,12.67,2.67,1.33,8,.83,6-3.34-1.83-3.66-6.83-6.66-9.66-9.33-3.67-3.33-6.67-7-10.5-10.17a32.34,32.34,0,0,1-4.84-4.66c-1.33-1.67-1-2.84-.83-5,.33-6.84,0-13.5,0-20.34Z" transform="translate(-4.56 -88.73)" style="fill:#f7a87f"/><path d="M265.48,219a25.15,25.15,0,0,0,5.5,2.83c2.5.83,7-.33,8.83,1.5,1.34,1.5,1,3.67,2,5.17.5.83,3.34,3.5,2.67,4.66-.83,1-9.17-1.66-10.5-2.16-1.5-.5-7.17-2.17-7.33-3.5Z" transform="translate(-4.56 -88.73)" style="fill:#f7a87f"/><path d="M404.81,270.29s-137.32-42.33-162-51c-1.88-.66-4.35-1-5.7.81-1.44,1.93-1.43,5.87.91,7,1.95.92,4.59,1,6.68,1.6l11,3.32q16.71,5,33.42,10.1l40.17,12.17q20,6.06,39.91,12.17,15,4.59,29.91,9.25l3,.94S407.14,277.29,404.81,270.29Z" transform="translate(-4.56 -88.73)" style="fill:#4a281e"/><path d="M430.85,317.58c-.25-3.25-2.75-24.62-3.12-30.37a43.17,43.17,0,0,0-1.63-8,7.45,7.45,0,0,0-1.34-3.17c-1.58-2.54-4.65-3.21-7.2-4.25-1.75-.67-3.41-1.33-5.16-2.08-1.92-.75-3.92-2.17-5.92-2.67-3.5-.83-6.67,4.5-7.08,7.42-.17,1.58-.17,5.08,1.25,6.25a10.68,10.68,0,0,0,2.41.83c.75.25,1.5.67,2.34.92,1.9.69,4.45,1.67,5.72,3.42-1,10.71-3.05,27.84-3.67,33.16-.13,1.25-.6,4.63,1,5a2.72,2.72,0,0,0,3.12-1.71c.88-1.62.63-29.12,5.13-28.87,1.82.1.62,18.87,1.12,26.62.12,1.75-.25,2.63,1.63,2.75s2-.75,2.25-2.5c.87-6.75-.74-26.41,2.62-26.87,2.39-.33,2.25,21.87,2.5,25.12.13,2,.1,3.78,2.88,3C431.52,321.08,431,319.46,430.85,317.58Z" transform="translate(-4.56 -88.73)" style="fill:#728196"/><path d="M310.86,250.37a20.16,20.16,0,0,0-.44-2.75c-.31-1.33-1.77-2.25-2.78-1.42s-.25,4.09.57,4.92c.63.67,2.59,1.25,3,.08Z" transform="translate(-4.56 -88.73)" style="fill:#f7a87f"/><path d="M310.86,250.37c-.19-.62-.3-1.25-.48-1.85-.09-.3-.17-.6-.28-.89a2.25,2.25,0,0,0-.42-.7,1.44,1.44,0,0,0-1.28-.57.87.87,0,0,0-.52.29,1.36,1.36,0,0,0-.23.63,6.29,6.29,0,0,0,.71,3.34,2.19,2.19,0,0,0,1.31.89c.54.15,1.18.18,1.46-.35v.09C311,251,310.94,250.66,310.86,250.37Zm0,0c.18.26.34.52.49.78l0,0v.07a1.22,1.22,0,0,1-.74.78,2.19,2.19,0,0,1-1.07.09,2.78,2.78,0,0,1-1.89-1,6.18,6.18,0,0,1-1-4,2.2,2.2,0,0,1,.48-1.12,1.75,1.75,0,0,1,1.13-.58,2.21,2.21,0,0,1,2,1,2.63,2.63,0,0,1,.42,1,6.61,6.61,0,0,1,.14,1C310.87,249.09,310.88,249.72,310.86,250.37Z" transform="translate(-4.56 -88.73)" style="fill:#c15e4d"/><path d="M315.48,252.62a2.44,2.44,0,0,1-2.15,1.17c-1.9.08-2.09-1.59-2.47-3.67-.19-1.25-.82-3.83,0-4.75a2.09,2.09,0,0,1,3.48.67,16.1,16.1,0,0,1,.51,1.58Z" transform="translate(-4.56 -88.73)" style="fill:#f7a87f"/><path d="M315.48,252.62a2.22,2.22,0,0,1-.74.9,3,3,0,0,1-1.11.43,2.41,2.41,0,0,1-1.25,0,1.91,1.91,0,0,1-1-.81,7,7,0,0,1-.78-2.28c-.15-.76-.3-1.48-.44-2.25a8.46,8.46,0,0,1-.11-2.43,2.23,2.23,0,0,1,.63-1.27,2.27,2.27,0,0,1,1.26-.66,2.67,2.67,0,0,1,2.44,1,5.64,5.64,0,0,1,.84,2.25l0,.06v0C315.34,249.29,315.43,251,315.48,252.62Zm0,0c-.38-1.7-.71-3.34-1-5l0,.09a5.82,5.82,0,0,0-.84-1.95,1.89,1.89,0,0,0-1.62-.62,1.31,1.31,0,0,0-.71.4,1.22,1.22,0,0,0-.34.75,7.28,7.28,0,0,0,.07,2.12l.33,2.24a7,7,0,0,0,.52,2.08,1.55,1.55,0,0,0,1.66.79A2.28,2.28,0,0,0,315.48,252.62Z" transform="translate(-4.56 -88.73)" style="fill:#c15e4d"/><path d="M320.34,253.62a5.14,5.14,0,0,1-3.28.67c-2.28-.09-2.72-2.84-2.85-5.42-.12-1.92-.69-4.25,1-5,1.45-.67,2.71-.75,3.34,1.42a17.17,17.17,0,0,1,.26,1.75Z" transform="translate(-4.56 -88.73)" style="fill:#f7a87f"/><path d="M320.34,253.62a4.63,4.63,0,0,1-2.59.88,4.11,4.11,0,0,1-1.43-.08,2.45,2.45,0,0,1-1.25-.84c-1.24-1.64-1.19-3.66-1.39-5.39a10.35,10.35,0,0,1-.07-2.85,2.6,2.6,0,0,1,.73-1.48,3,3,0,0,1,.71-.45,5.17,5.17,0,0,1,.69-.26,2.68,2.68,0,0,1,1.62-.08,2.16,2.16,0,0,1,1.25,1.11,7.34,7.34,0,0,1,.58,2.82V247c.21,1.15.43,2.28.63,3.4Zm0,0-1-3.31-.88-3.19v0a8.3,8.3,0,0,0-.64-2.46c-.38-.71-1-.82-1.79-.55a5.5,5.5,0,0,0-.58.24,1.85,1.85,0,0,0-.43.27,1.87,1.87,0,0,0-.44.94,10.61,10.61,0,0,0,0,2.57c.08.95.07,1.82.2,2.69a5.38,5.38,0,0,0,.75,2.41,2,2,0,0,0,.91.73,5,5,0,0,0,1.27.2A4.78,4.78,0,0,0,320.34,253.62Z" transform="translate(-4.56 -88.73)" style="fill:#c15e4d"/><path d="M324.39,253c-.19,1.33-2.34,1.25-3,1-2-.67-2.4-3.75-2.59-6.17a17.39,17.39,0,0,1-.31-3.58c.12-1.09.69-1.25,1.58-1.34,1.7-.08,2.53,2.09,3.16,3.92a18.24,18.24,0,0,1,.38,2Z" transform="translate(-4.56 -88.73)" style="fill:#f7a87f"/><path d="M324.39,253a1.15,1.15,0,0,1-.4.79,2,2,0,0,1-.82.41,4,4,0,0,1-1.85,0,2.86,2.86,0,0,1-1.55-1.11,5.8,5.8,0,0,1-.83-1.67,16.37,16.37,0,0,1-.64-3.55,18.27,18.27,0,0,1-.36-3.59,2.34,2.34,0,0,1,.3-1.05,1.6,1.6,0,0,1,1-.72,3.17,3.17,0,0,1,1-.11,2,2,0,0,1,1.05.34,3.82,3.82,0,0,1,1.29,1.5,10.17,10.17,0,0,1,.69,1.69,7.46,7.46,0,0,1,.42,1.78c.06.59.14,1.15.24,1.75C324.09,250.71,324.27,251.88,324.39,253Zm0,0c-.34-1.15-.62-2.29-.93-3.42-.14-.56-.27-1.16-.37-1.73a7.2,7.2,0,0,0-.52-1.61,5.61,5.61,0,0,0-1.75-2.65,1.67,1.67,0,0,0-1.33-.1.6.6,0,0,0-.4.28,1.55,1.55,0,0,0-.15.64,19.24,19.24,0,0,0,.3,3.42,20,20,0,0,0,.43,3.41,3.34,3.34,0,0,0,1.8,2.54,3.6,3.6,0,0,0,1.64.16A1.35,1.35,0,0,0,324.39,253Z" transform="translate(-4.56 -88.73)" style="fill:#c15e4d"/><path d="M317,239.46a6.27,6.27,0,0,0,1.33,4.33c1.67,2,4,2.33,6.5,2.33.59,2.09,1.09,4.5,2.25,6.34.42.66,1.42,1.75,2.42,1.08.67-.5.5-2,.5-2.75a18.45,18.45,0,0,0-1-4.75c-.42-1.42-.92-3.75-2.08-4.67-1.25-1.08-3.09-1.5-4.42-2.58a19.78,19.78,0,0,1-3.42-4" transform="translate(-4.56 -88.73)" style="fill:#f7a87f"/><path d="M317,239.46a6.07,6.07,0,0,0,.6,2.82,5.56,5.56,0,0,0,1.79,2.19,6.16,6.16,0,0,0,2.58,1.08,13.58,13.58,0,0,0,2.86.18h.29l.09.3c.42,1.32.73,2.66,1.2,3.92a12.35,12.35,0,0,0,.82,1.81,3.33,3.33,0,0,0,1.15,1.36c.44.26.87.16,1-.25a5.7,5.7,0,0,0,.13-1.86,16.2,16.2,0,0,0-.68-3.93c-.43-1.31-.68-2.71-1.18-3.91a3.68,3.68,0,0,0-1-1.55,7.72,7.72,0,0,0-1.67-1.08c-.6-.31-1.23-.61-1.83-1a8.27,8.27,0,0,1-1.62-1.38,21.6,21.6,0,0,1-2.42-3.37,27.66,27.66,0,0,0,2.69,3.11,8.55,8.55,0,0,0,1.62,1.19c.58.33,1.21.59,1.84.88a8.62,8.62,0,0,1,1.85,1.07,4.62,4.62,0,0,1,1.33,1.79c.6,1.33.85,2.67,1.32,4a16.16,16.16,0,0,1,.76,4.18,6,6,0,0,1-.18,2.23,1.64,1.64,0,0,1-.4.62,1.49,1.49,0,0,1-.66.36,1.78,1.78,0,0,1-1.36-.23,4.43,4.43,0,0,1-1.51-1.74,12.54,12.54,0,0,1-.84-2c-.45-1.34-.76-2.69-1.09-4l.38.29a13.87,13.87,0,0,1-3-.34,6.63,6.63,0,0,1-2.75-1.32,5.83,5.83,0,0,1-1.73-2.47A5.68,5.68,0,0,1,317,239.46Z" transform="translate(-4.56 -88.73)" style="fill:#c15e4d"/><path d="M278,229c-2.5,1.83.67,8.5,1.5,10.5.5,1.5,1.5,3,0,4.16-1.5,1.34-3.67.34-4.67-.83-.33-.5-.83-2-1.16-2.17-.5-.33-1.84.34-2.5.34a3.58,3.58,0,0,1-3.34-3.17c-2.16.33-3.16,1.5-4-1a14.39,14.39,0,0,1-.33-4.67c0-2-.17-6.83,2-7.83Z" transform="translate(-4.56 -88.73)" style="fill:#f7a87f"/><path d="M222.48,176.46a11.61,11.61,0,0,0,.17-2.5c0-2.67,1-3.17,2.16-5.34s.5-5,.5-7.33a45.83,45.83,0,0,1,.5-6.83c.84-4.84,3-8.67,7.34-11,3.33-1.84,8.16-3.17,11.83-1.34,4,2,6.33,6.34,6.67,10.67.16,1.67.16,3.5.16,5.33-.16,2-1.33,3.67-1.33,5.5-.17,1.5.67,1.17,1.17,2.5.33,1-.17,1.84-.5,2.84-.34.83-1.17,1.5-1,2.5s1,1.33,1.33,2.33c1.5,4.67-6,3.5-8.67,3.83a74.63,74.63,0,0,1-8.66.84c-2.84,0-5.5-.84-8.34-1Z" transform="translate(-4.56 -88.73)" style="fill:#508699"/><path d="M227,172.62a14.86,14.86,0,0,0,5.17,1.34c1.78.19,3.57.25,5.39.33s3.6.26,5.38.21a13.6,13.6,0,0,0,2.63-.31,5.89,5.89,0,0,0,2.43-1.07,5.32,5.32,0,0,1-2.29,1.54,11,11,0,0,1-2.71.62,30.51,30.51,0,0,1-5.49,0,38.6,38.6,0,0,1-5.45-.57A11,11,0,0,1,227,172.62Z" transform="translate(-4.56 -88.73)" style="fill:#3c697c"/><path d="M244.65,171.12l-6.66.45c-1.12,0-2.22.07-3.36,0s-2.23-.16-3.35-.36a9.65,9.65,0,0,1-1.69-.46,3.61,3.61,0,0,1-.81-.45,3.43,3.43,0,0,1-.67-.71,2.11,2.11,0,0,1-.24-.5,1,1,0,0,1,0-.71,1.4,1.4,0,0,1,1-.66,7.87,7.87,0,0,1,1.77-.16c.57,0,1.14,0,1.69.06l1.64,0,3.36.06,1.67,0a10.55,10.55,0,0,1,1.7.25c1.09.21,2.17.45,3.23.55a5.19,5.19,0,0,0,1.53,0,1.66,1.66,0,0,0,.6-.26.73.73,0,0,0,.29-.3s-.07-.16-.27-.29a3.71,3.71,0,0,0-.66-.34,10.85,10.85,0,0,0-1.52-.51c-.52-.14-1.06-.26-1.6-.36s-1.1-.26-1.64-.38c-1.07-.25-2.15-.48-3.24-.63a24.07,24.07,0,0,0-3.3-.24c-1.11,0-2.22-.08-3.33-.14,1.11-.05,2.22-.1,3.33-.13a25.13,25.13,0,0,1,3.36,0c1.12.11,2.22.3,3.31.51.56.09,1.1.22,1.63.29s1.11.19,1.66.31a12.51,12.51,0,0,1,1.66.48,4.55,4.55,0,0,1,.82.42,1.86,1.86,0,0,1,.41.35,1,1,0,0,1,.24.66,1.34,1.34,0,0,1-.65,1,2.6,2.6,0,0,1-.91.41,6.1,6.1,0,0,1-1.8.06c-1.14-.1-2.24-.33-3.33-.53a8.86,8.86,0,0,0-1.6-.2l-1.65,0-3.31-.11-1.68-.06c-.56,0-1.11-.07-1.65-.08a6.39,6.39,0,0,0-1.54.11.68.68,0,0,0-.4.19s0,.15.12.34a4,4,0,0,0,2.6,1.35c1.06.23,2.15.35,3.26.48s2.19.11,3.29.12C240.2,171.11,242.42,171,244.65,171.12Z" transform="translate(-4.56 -88.73)" style="fill:#3c697c"/><path d="M262.81,115.79c-1.5.67-2.16,3.5-2.33,5a10.27,10.27,0,0,0,3.67,9.17c5.5,5,15.33,6.33,22.5,7,4.16.5,8.16,1.5,12.5.66,4.5-.83,7.16-4.66,9-8.66,0,1.83-4,9.33-3.17,10.33,2.33,2.83,5-7.33,5.17-8.5a18.38,18.38,0,0,0-2-10.33c-1.34-2.67-4.17-6.84-7.67-6.84Z" transform="translate(-4.56 -88.73)" style="fill:#4a281e"/><path d="M266.15,128.79c-.67,1.33-.5,3.33-.67,4.83-.17,2.84-.67,6.34.17,9.17,1.33,3.33,4.5,7.33,6.83,10,2.17,2.83,4.16,5.1,8,4.1a21.83,21.83,0,0,0,10.18-6.43,10.41,10.41,0,0,0,2.5-4.84c.66-2.33,1.66-3,3.5-4.83,6-6,9.66-14.17,4.16-21.83-7.66-10.84-33-11.17-35,4.83Z" transform="translate(-4.56 -88.73)" style="fill:#f7a87f"/><path d="M266.6,123.21c-1-.63-2.87-.5-4.12-.5-3.13.12-5.38,1.62-5.88,4.75-1.25,7.12,4.25,9.37,9.75,9.37Z" transform="translate(-4.56 -88.73)" style="fill:#f7a87f"/><path d="M264.35,120c0,3.75-.75,7.25-.75,11,0,1.37-.25,2.37,1.13,2.87a2.74,2.74,0,0,0,3.37-1c1.13-1.62.88-4.62,1-6.62,1.88.87,5.5-.38,6.88-1.75,1.62-1.5,3.62-4.63,1-5.88-2-.87-4.63-.75-6.75-.87-1.75-.13-4.38.12-5.75-.38Z" transform="translate(-4.56 -88.73)" style="fill:#4a281e"/><path d="M284.1,109c6.38.25,13.13.37,19.13-1.88a8.24,8.24,0,0,0,1.43-.77c-.06-.28-.11-.57-.18-.85-.75-3.5-1-7.75-2.75-11s-4-4.75-7.5-4.25c-1.38.12-2.75.62-4.25.62-1.75,0-3.5-.12-5.38-.12-4.25,0-8.5-2.5-12.75-1.88-3.37.5-4.75,3.38-5.37,6.63s-.73,6.53-1.1,9.86a25.47,25.47,0,0,0,8,2.39A80.3,80.3,0,0,0,284.1,109Z" transform="translate(-4.56 -88.73)" style="fill:#967654"/><path d="M306.23,115c-.8-2.84-1-5.79-1.57-8.65a8.24,8.24,0,0,1-1.43.77c-6,2.25-12.75,2.13-19.13,1.88a80.3,80.3,0,0,1-10.75-1.25,25.47,25.47,0,0,1-8-2.39,43.58,43.58,0,0,1-1.9,9.39l2,2.12h.12a37.05,37.05,0,0,0,9,1.75c3.63.38,7.38,1.13,11,1.25a79.24,79.24,0,0,0,11-.25c3.25-.37,7.5-.5,10.38-2Z" transform="translate(-4.56 -88.73)" style="fill:#774742"/><path d="M275.23,93.21a5.63,5.63,0,0,0,1.6,2.21A13.56,13.56,0,0,0,279.05,97c.39.23.8.45,1.2.65a10.51,10.51,0,0,0,1.25.5,14,14,0,0,0,2.62.69,16.43,16.43,0,0,0,5.42.05,15.33,15.33,0,0,0,5.19-1.82,11.81,11.81,0,0,1-2.34,1.6,12.84,12.84,0,0,1-2.7,1,14.23,14.23,0,0,1-5.74.16,12.82,12.82,0,0,1-5.32-2.17,10.55,10.55,0,0,1-2.15-1.91A5.12,5.12,0,0,1,275.23,93.21Z" transform="translate(-4.56 -88.73)" style="fill:#6b533d"/><path d="M250.18,106.57a22.85,22.85,0,0,0,2.07,2.3c6.51,5.41,17,6.45,25.09,7.24,8.84.86,18.21,1.29,27,0a67.88,67.88,0,0,0,7.38-1.5c2.25-.62,5-1.75,7.25-1.75a2.88,2.88,0,0,1,3,2.13c.5,1.87-.62,2.64-2.13,3.25-21.12,8.5-54.38,2.33-59.47,1a26.72,26.72,0,0,1-14.4-9.37c-.88-1.12-2.25-3.62-.75-4.87C247.11,103.39,248.75,104.91,250.18,106.57Z" transform="translate(-4.56 -88.73)" style="fill:#cdaa80"/><path d="M283.07,128a3.06,3.06,0,0,1-1.66,1c-1.1-.07-1-1.59-.41-2.28a5.58,5.58,0,0,1,3.67-2c1.31-.07,1.59,1,.55,1.73Z" transform="translate(-4.56 -88.73)" style="fill:#4a281e"/><path d="M297.94,131.8a3.19,3.19,0,0,0,.91,1.69c1,.53,1.66-.84,1.55-1.72a5.56,5.56,0,0,0-2.07-3.63c-1.08-.75-1.9,0-1.38,1.18Z" transform="translate(-4.56 -88.73)" style="fill:#4a281e"/><path d="M290.34,135.09a5.66,5.66,0,0,0-.18,2.09l.07,2.11c.07,1.4.2,2.8.36,4.2a5.13,5.13,0,0,1-.09,2.32,2.89,2.89,0,0,1-1.77,1.63,6.25,6.25,0,0,1-4.34.11,7.72,7.72,0,0,0,4-.81,2.18,2.18,0,0,0,1.21-1.24,4.33,4.33,0,0,0,0-1.9,25.82,25.82,0,0,1-.15-4.31c0-.73.14-1.43.22-2.14A4.82,4.82,0,0,1,290.34,135.09Z" transform="translate(-4.56 -88.73)" style="fill:#c15e4d"/><path d="M276.36,147.06c-.13,1.8.76,4.57,2.22,5.54a5.11,5.11,0,0,0,6-.62Z" transform="translate(-4.56 -88.73)" style="fill:#fff"/><path d="M282.75,135.56c-.69,1.13-1.72,1.75-2.3,1.39s-.48-1.55.21-2.68,1.72-1.74,2.3-1.38S283.44,134.44,282.75,135.56Z" transform="translate(-4.56 -88.73)" style="fill:#272525"/><path d="M294.52,139.83c-.69,1.12-1.72,1.74-2.3,1.39s-.49-1.56.2-2.68,1.72-1.74,2.3-1.39S295.21,138.71,294.52,139.83Z" transform="translate(-4.56 -88.73)" style="fill:#272525"/><path d="M105.59,379.22c0,.49-1.72.88-3.84.88s-3.83-.39-3.83-.88,1.72-.89,3.83-.89S105.59,378.73,105.59,379.22Z" transform="translate(-4.56 -88.73)" style="fill:#e2bb91"/><path d="M109.8,387.77c0,.74-1.39,1.33-3.11,1.33s-3.1-.59-3.1-1.33,1.39-1.33,3.1-1.33S109.8,387,109.8,387.77Z" transform="translate(-4.56 -88.73)" style="fill:#e2bb91"/><path d="M105.59,394.5c0,.58-.86,1.06-1.92,1.06s-1.92-.48-1.92-1.06.86-1.06,1.92-1.06S105.59,393.91,105.59,394.5Z" transform="translate(-4.56 -88.73)" style="fill:#e2bb91"/><path d="M100,385.6c0,.46-1.2.84-2.68.84s-2.68-.38-2.68-.84,1.2-.83,2.68-.83S100,385.14,100,385.6Z" transform="translate(-4.56 -88.73)" style="fill:#e2bb91"/><path d="M96.25,376.22c0,1.16-1.86,2.11-4.16,2.11s-4.17-.95-4.17-2.11,1.86-2.11,4.17-2.11S96.25,375.06,96.25,376.22Z" transform="translate(-4.56 -88.73)" style="fill:#e2bb91"/><path d="M85.92,383.71c0,.58-1.57,1.06-3.5,1.06s-3.5-.48-3.5-1.06,1.57-1.06,3.5-1.06S85.92,383.12,85.92,383.71Z" transform="translate(-4.56 -88.73)" style="fill:#e2bb91"/><path d="M61.25,357.45c0,.55-1.49,1-3.33,1s-3.33-.45-3.33-1,1.49-1,3.33-1S61.25,356.89,61.25,357.45Z" transform="translate(-4.56 -88.73)" style="fill:#e2bb91"/><path d="M65.92,352.46c0,.41-1.27.74-2.83.74s-2.84-.33-2.84-.74,1.27-.73,2.84-.73S65.92,352.06,65.92,352.46Z" transform="translate(-4.56 -88.73)" style="fill:#e2bb91"/><path d="M56.42,350.5c0,.68-.93,1.23-2.08,1.23s-2.09-.55-2.09-1.23.94-1.22,2.09-1.22S56.42,349.82,56.42,350.5Z" transform="translate(-4.56 -88.73)" style="fill:#e2bb91"/><path d="M65.09,346.78c0,.45-.6.82-1.34.82s-1.33-.37-1.33-.82.6-.82,1.33-.82S65.09,346.33,65.09,346.78Z" transform="translate(-4.56 -88.73)" style="fill:#e2bb91"/><ellipse cx="58.53" cy="274.54" rx="2.83" ry="0.83" style="fill:#e2bb91"/><path d="M53.09,362.26c0,.56-1,1-2.17,1s-2.17-.45-2.17-1,1-1,2.17-1S53.09,361.7,53.09,362.26Z" transform="translate(-4.56 -88.73)" style="fill:#e2bb91"/><ellipse cx="45.28" cy="279.45" rx="2.42" ry="0.75" style="fill:#e2bb91"/><path d="M69.1,373.36c0,.41-.9.75-2,.75s-2-.34-2-.75.89-.76,2-.76S69.1,372.94,69.1,373.36Z" transform="translate(-4.56 -88.73)" style="fill:#e2bb91"/><path d="M69.1,339.32c0,.29-.9.53-2,.53s-2-.24-2-.53.89-.53,2-.53S69.1,339,69.1,339.32Z" transform="translate(-4.56 -88.73)" style="fill:#e2bb91"/><path d="M114.92,385.19c0,.23-.45.41-1,.41s-1-.18-1-.41.44-.42,1-.42S114.92,385,114.92,385.19Z" transform="translate(-4.56 -88.73)" style="fill:#e2bb91"/><path d="M105.59,408.52c0,.6-1.27,1.08-2.82,1.08s-2.82-.48-2.82-1.08,1.26-1.08,2.82-1.08S105.59,407.92,105.59,408.52Z" transform="translate(-4.56 -88.73)" style="fill:#e2bb91"/><path d="M199.61,403.6c0,.65-1.05,1.17-2.35,1.17s-2.34-.52-2.34-1.17,1.05-1.16,2.34-1.16S199.61,403,199.61,403.6Z" transform="translate(-4.56 -88.73)" style="fill:#e2bb91"/><ellipse cx="198.69" cy="312.7" rx="2" ry="1" style="fill:#e2bb91"/><path d="M207.59,405.94c0,.36-1,.66-2.17.66s-2.17-.3-2.17-.66,1-.67,2.17-.67S207.59,405.57,207.59,405.94Z" transform="translate(-4.56 -88.73)" style="fill:#e2bb91"/><path d="M211.42,413.15c0,.53-.86,1-1.92,1s-1.91-.42-1.91-1,.85-.94,1.91-.94S211.42,412.63,211.42,413.15Z" transform="translate(-4.56 -88.73)" style="fill:#e2bb91"/><path d="M217.09,411.65c0,.31-.75.56-1.67.56s-1.67-.25-1.67-.56.75-.55,1.67-.55S217.09,411.35,217.09,411.65Z" transform="translate(-4.56 -88.73)" style="fill:#e2bb91"/><ellipse cx="207.03" cy="334.37" rx="2.83" ry="1.17" style="fill:#e2bb91"/><path d="M218.75,405.69c0,.5-1,.91-2.16.91s-2.17-.41-2.17-.91,1-.92,2.17-.92S218.75,405.18,218.75,405.69Z" transform="translate(-4.56 -88.73)" style="fill:#e2bb91"/><path d="M201.25,434.37c0,.59-1,1.07-2.33,1.07s-2.33-.48-2.33-1.07,1-1.06,2.33-1.06S201.25,433.79,201.25,434.37Z" transform="translate(-4.56 -88.73)" style="fill:#e2bb91"/><ellipse cx="200.53" cy="343.81" rx="1.83" ry="0.77" style="fill:#e2bb91"/><ellipse cx="203.28" cy="350.2" rx="0.92" ry="0.5" style="fill:#e2bb91"/><ellipse cx="101.28" cy="338.37" rx="2.25" ry="1" style="fill:#e2bb91"/><path d="M108.75,422.52c0,.32-.93.58-2.08.58s-2.08-.26-2.08-.58.93-.58,2.08-.58S108.75,422.2,108.75,422.52Z" transform="translate(-4.56 -88.73)" style="fill:#e2bb91"/><ellipse cx="94.95" cy="331.12" rx="2.24" ry="0.75" style="fill:#e2bb91"/><path d="M105.59,416.1c0,.28-.43.5-1,.5s-1-.22-1-.5.43-.5,1-.5S105.59,415.83,105.59,416.1Z" transform="translate(-4.56 -88.73)" style="fill:#e2bb91"/><path d="M89.42,411.79c0,.76-1.16,1.36-2.58,1.36s-2.59-.6-2.59-1.36,1.16-1.35,2.59-1.35S89.42,411,89.42,411.79Z" transform="translate(-4.56 -88.73)" style="fill:#e2bb91"/><path d="M128.25,436.44c0,.55-1.15,1-2.58,1s-2.58-.45-2.58-1,1.15-1,2.58-1S128.25,435.88,128.25,436.44Z" transform="translate(-4.56 -88.73)" style="fill:#e2bb91"/><path d="M134.25,440.35c0,.51-1,.92-2.33.92s-2.33-.41-2.33-.92,1-.91,2.33-.91S134.25,439.85,134.25,440.35Z" transform="translate(-4.56 -88.73)" style="fill:#e2bb91"/><path d="M139.59,436.94c0,.27-.64.5-1.42.5s-1.42-.23-1.42-.5.64-.5,1.42-.5S139.59,436.66,139.59,436.94Z" transform="translate(-4.56 -88.73)" style="fill:#e2bb91"/><path d="M150.75,446.19c0,.59-1.27,1.08-2.83,1.08s-2.83-.49-2.83-1.08,1.26-1.09,2.83-1.09S150.75,445.59,150.75,446.19Z" transform="translate(-4.56 -88.73)" style="fill:#e2bb91"/><path d="M160.92,438.94c0,.27-.86.5-1.92.5s-1.91-.23-1.91-.5.85-.5,1.91-.5S160.92,438.66,160.92,438.94Z" transform="translate(-4.56 -88.73)" style="fill:#e2bb91"/><path d="M164.25,443.27c0,.46-.74.83-1.66.83s-1.67-.37-1.67-.83.75-.83,1.67-.83S164.25,442.81,164.25,443.27Z" transform="translate(-4.56 -88.73)" style="fill:#e2bb91"/><path d="M176.09,439.39c0,.53-.86,1-1.92,1s-1.92-.43-1.92-1,.86-.95,1.92-.95S176.09,438.86,176.09,439.39Z" transform="translate(-4.56 -88.73)" style="fill:#e2bb91"/><ellipse cx="180.36" cy="347.2" rx="2" ry="0.5" style="fill:#e2bb91"/><path d="M189,439.39c0,.53-.91,1-2,1s-2-.43-2-1,.9-.95,2-.95S189,438.86,189,439.39Z" transform="translate(-4.56 -88.73)" style="fill:#e2bb91"/><path d="M194.92,440.35c0,.51-1.08.92-2.42.92s-2.41-.41-2.41-.92,1.08-.91,2.41-.91S194.92,439.85,194.92,440.35Z" transform="translate(-4.56 -88.73)" style="fill:#e2bb91"/><path d="M159.92,441.81c0,.81-1.48,1.46-3.31,1.46s-3.31-.65-3.31-1.46,1.48-1.46,3.31-1.46S159.92,441,159.92,441.81Z" transform="translate(-4.56 -88.73)" style="fill:#e2bb91"/><path d="M74.23,304.45c0,13.5.75,26.75-2.5,40-1.25,5.5-3.75,11.75,0,16.75,4.25,5.25,11,6,17,7a201.32,201.32,0,0,0,38.75,3.5c7.25,0,30.5-2.75,28.5-14.25-1-6.5-8.5-9.75-8.25-16.75.25-3,2-5.75,2.5-8.5.25-3-.5-5.5-1.25-8.25-1.75-5.75-.25-11.25-.5-17-.25-6,.75-11-6.75-10.75-.5,0-1.25.25-2,.25Z" transform="translate(-4.56 -88.73)" style="fill:#917f73"/><path d="M140.73,284.45c-5.5.75-7.25.25-12-2.5-6.25-4-13.5-4.5-20.5-2.75a84.68,84.68,0,0,1-19.5,2c-4.75,0-13.25.25-17,3.25-4.25,3.5-1,11-1.75,16-.25,2.5-1.5,5.5-.5,8,1.5,3,5.75,5,8.5,6.5,11.25,6.5,26.5,8,38.75,3.5,5.75-2,11.5-6.25,17.75-5.5,4.25.25,11.25,3,14.25-.5,3.25-3.5,1-11,1-15.5,0-3.5.5-10.25-3-12.25-.67-.67-2.57-.25-3.45-.25A21.69,21.69,0,0,0,140.73,284.45Z" transform="translate(-4.56 -88.73)" style="fill:#af9f95"/><path d="M144.4,286.28c2.52-.5,2.83,2.09,2.33,3.09-1,2.75-5,2.08-7.25,2.33-5.25,1-10,1.75-15.25,3.75-3.25,1-6.75,1-10,1.5-3.5.25-7,1.5-10.25,2a31.6,31.6,0,0,1-18-2.75C83.23,295,71.73,289,75.23,285c2-2.25,11.75-1.25,15-1.25a59.21,59.21,0,0,0,13.25-1c5.25-.75,9.75-2.5,15.25-1.25,6.5,1.25,10.92,5.75,17.67,5.75Z" transform="translate(-4.56 -88.73)" style="fill:#917f73"/><g style="clip-path:url(#clip-path-3)"><path d="M142.48,291.18c.88-.8,1-3.49-.5-3.09.13-1.34,0-2.95-1.75-2.28.5-1.48-1.37-2.69-2.37-1.75-.38-.94-1.38-.53-2,0-.25.41.12,1.08-.13,1.35s-.87-.14-1.12.13c-.5.67-.5,1.75-.88,2.15-.62.54-1.62-.27-1.75,1.21.25-1.61-1.12-2.69-2.12-1.34.62-1.48-1.25-2.15-2.13-1.21.5-.81.25-3.23-.87-2,1.12-1.21.37-3.76-1.38-2.28a1.58,1.58,0,0,0-3.12-.54c.37-2.15-3.25-2.82-2.88-.13-.12-1.35-1.37-2.56-2.25-1.21.75-1.21-.25-3.63-1.62-2.15.5-1.75-1.63-3.9-2.13-1.75-.37-1.07-2.37-1.07-3-.27s-.5,1.75-.5,2.69c-.08-1.41-1.56-1.31-2.64-.66-.32-1.08-1-1.76-1.48-.55-.25-2.69-3-3.09-3.38-.27-.5-2.55-2.87-.13-3,1.34-1.75-1.88-2.62.41-2.87,2-.38-1.34-2.13-2.55-3.13-1.08-.12-1.34-2.12-2-2.5-.53,0-2-3-2.82-2.87-.81-1.63-2-3.75-.13-3.25,1.88-2.25-.8-2.75.81-2,3-1.25-.67-3.75-.27-2.63,1.74-1.12-.8-4.25.27-2.62,2-1.25-.4-3.38.27-3.13,2l6,7.25c6.75,4.84,16.75,7.39,24.75,6.05a6.87,6.87,0,0,0,.94-.22,20.93,20.93,0,0,0,4.19,1.56,19.12,19.12,0,0,0,11.62-.8,56.86,56.86,0,0,1,11.63-3c2.62-.54,7.87-1.75,7.5-5.64a1.35,1.35,0,0,0,.12.67C142.61,294.54,143.61,291.86,142.48,291.18Z" transform="translate(-4.56 -88.73)" style="fill:#e2bb91"/><path d="M86.65,285.87c0,.46-.67.83-1.5.83s-1.5-.37-1.5-.83.67-.84,1.5-.84S86.65,285.41,86.65,285.87Z" transform="translate(-4.56 -88.73)" style="fill:#c96"/><ellipse cx="84.17" cy="195.68" rx="1.5" ry="1.13" style="fill:#c96"/><ellipse cx="88.67" cy="200.97" rx="1.75" ry="1.25" style="fill:#c96"/><ellipse cx="94.13" cy="195.09" rx="1.12" ry="0.53" style="fill:#c96"/><path d="M110.76,282.86c0,.82-1.15,1.49-2.56,1.49s-2.55-.67-2.55-1.49,1.14-1.49,2.55-1.49S110.76,282,110.76,282.86Z" transform="translate(-4.56 -88.73)" style="fill:#c96"/><path d="M110.23,289.08c0,.34-.45.62-1,.62s-1-.28-1-.62.46-.63,1-.63S110.23,288.73,110.23,289.08Z" transform="translate(-4.56 -88.73)" style="fill:#c96"/><path d="M119.73,286.43a2.13,2.13,0,1,1-2.12-2A2.07,2.07,0,0,1,119.73,286.43Z" transform="translate(-4.56 -88.73)" style="fill:#c96"/><ellipse cx="111.99" cy="201.03" rx="1.06" ry="0.69" style="fill:#c96"/><path d="M123.32,284.16c0,.48-.71.87-1.59.87s-1.58-.39-1.58-.87.71-.88,1.58-.88S123.32,283.68,123.32,284.16Z" transform="translate(-4.56 -88.73)" style="fill:#c96"/><path d="M91.07,292.28c0,.56-1,1-2.21,1s-2.21-.44-2.21-1,1-1,2.21-1S91.07,291.73,91.07,292.28Z" transform="translate(-4.56 -88.73)" style="fill:#c96"/><path d="M103,293.53c0,.46-1,.84-2.14.84s-2.15-.38-2.15-.84,1-.83,2.15-.83S103,293.07,103,293.53Z" transform="translate(-4.56 -88.73)" style="fill:#c96"/><path d="M103,288.6c0,.26-.48.48-1.07.48s-1.07-.22-1.07-.48.48-.48,1.07-.48S103,288.33,103,288.6Z" transform="translate(-4.56 -88.73)" style="fill:#c96"/><ellipse cx="104.42" cy="204.59" rx="1.25" ry="0.63" style="fill:#c96"/><path d="M126.82,289.36c0,.42-.68.76-1.5.76s-1.5-.34-1.5-.76.67-.76,1.5-.76S126.82,288.94,126.82,289.36Z" transform="translate(-4.56 -88.73)" style="fill:#c96"/><path d="M133.15,290.7c0,.32-.75.58-1.67.58s-1.66-.26-1.66-.58.74-.58,1.66-.58S133.15,290.38,133.15,290.7Z" transform="translate(-4.56 -88.73)" style="fill:#c96"/><path d="M81,289.6c0,.29-.59.52-1.33.52s-1.33-.23-1.33-.52.59-.52,1.33-.52S81,289.31,81,289.6Z" transform="translate(-4.56 -88.73)" style="fill:#c96"/><path d="M82,287.91c0,.11-.33.21-.75.21s-.75-.1-.75-.21.34-.21.75-.21S82,287.79,82,287.91Z" transform="translate(-4.56 -88.73)" style="fill:#c96"/><path d="M96.07,296.08c0,.29-.64.54-1.42.54s-1.42-.25-1.42-.54.64-.55,1.42-.55S96.07,295.78,96.07,296.08Z" transform="translate(-4.56 -88.73)" style="fill:#c96"/><path d="M87.82,289.91c0,.11-.26.21-.59.21s-.58-.1-.58-.21.26-.21.58-.21S87.82,289.79,87.82,289.91Z" transform="translate(-4.56 -88.73)" style="fill:#c96"/><ellipse cx="81.8" cy="205.01" rx="0.88" ry="0.21" style="fill:#c96"/><path d="M92.48,281.4c0,.21-.31.38-.71.38s-.7-.17-.7-.38.31-.39.7-.39S92.48,281.19,92.48,281.4Z" transform="translate(-4.56 -88.73)" style="fill:#c96"/><path d="M124.73,292.49c0,.12-.56.21-1.25.21s-1.25-.09-1.25-.21.56-.21,1.25-.21S124.73,292.38,124.73,292.49Z" transform="translate(-4.56 -88.73)" style="fill:#c96"/><path d="M139.4,286.86c0,.23-.45.42-1,.42s-1-.19-1-.42.45-.43,1-.43S139.4,286.62,139.4,286.86Z" transform="translate(-4.56 -88.73)" style="fill:#c96"/><path d="M138.4,288.15c0,.25-.58.45-1.29.45s-1.29-.2-1.29-.45.57-.45,1.29-.45S138.4,287.9,138.4,288.15Z" transform="translate(-4.56 -88.73)" style="fill:#c96"/><path d="M140.15,289.56c0,.11-.17.2-.38.2s-.37-.09-.37-.2.17-.2.37-.2S140.15,289.45,140.15,289.56Z" transform="translate(-4.56 -88.73)" style="fill:#c96"/></g><path d="M117.73,366.06c0,13.5.75,26.75-2.5,40-1.25,5.5-3.75,11.75,0,16.75,4.25,5.25,11,6,17,7a201.32,201.32,0,0,0,38.75,3.5c7.25,0,30.5-2.75,28.5-14.25-1-6.5-8.5-9.75-8.25-16.75.25-3,2-5.75,2.5-8.5.25-3-.5-5.5-1.25-8.25-1.75-5.75-.25-11.25-.5-17-.25-6,.75-11-6.75-10.75-.5,0-1.25.25-2,.25Z" transform="translate(-4.56 -88.73)" style="fill:#917f73"/><path d="M184.23,346.06c-5.5.75-7.25.25-12-2.5-6.25-4-13.5-4.5-20.5-2.75a84.68,84.68,0,0,1-19.5,2c-4.75,0-13.25.25-17,3.25-4.25,3.5-1,11-1.75,16-.25,2.5-1.5,5.5-.5,8,1.5,3,5.75,5,8.5,6.5,11.25,6.5,26.5,8,38.75,3.5,5.75-2,11.5-6.25,17.75-5.5,4.25.25,11.25,3,14.25-.5,3.25-3.5,1-11,1-15.5,0-3.5.5-10.25-3-12.25-.67-.67-2.57-.25-3.45-.25A21.69,21.69,0,0,0,184.23,346.06Z" transform="translate(-4.56 -88.73)" style="fill:#af9f95"/><path d="M187.9,347.89c2.52-.5,2.84,2.09,2.34,3.09-1,2.75-5,2.08-7.26,2.33-5.25,1-10,1.75-15.25,3.75-3.25,1-6.75,1-10,1.5-3.5.25-7,1.5-10.25,2a31.6,31.6,0,0,1-18-2.75c-2.75-1.25-14.25-7.25-10.75-11.25,2-2.25,11.75-1.25,15-1.25a59.21,59.21,0,0,0,13.25-1c5.25-.75,9.75-2.5,15.25-1.25,6.5,1.25,10.92,5.75,17.67,5.75Z" transform="translate(-4.56 -88.73)" style="fill:#917f73"/><g style="clip-path:url(#clip-path-4)"><path d="M186,352.79c.88-.8,1-3.49-.5-3.09.13-1.34,0-2.95-1.75-2.28.5-1.48-1.37-2.69-2.37-1.75-.38-.94-1.38-.53-2,0-.25.41.12,1.08-.13,1.35s-.87-.14-1.12.13c-.5.67-.5,1.75-.88,2.15-.62.54-1.62-.27-1.75,1.21.25-1.61-1.12-2.69-2.12-1.34.62-1.48-1.25-2.15-2.13-1.21.5-.81.25-3.23-.87-2,1.12-1.21.37-3.76-1.38-2.28a1.58,1.58,0,0,0-3.12-.54c.37-2.15-3.25-2.82-2.88-.14-.12-1.34-1.37-2.55-2.25-1.2.75-1.21-.25-3.63-1.62-2.15.5-1.75-1.63-3.9-2.13-1.75-.37-1.07-2.37-1.07-3-.27s-.5,1.75-.5,2.69c-.08-1.41-1.56-1.32-2.64-.66-.32-1.08-1-1.76-1.48-.55-.25-2.69-3-3.09-3.38-.27-.5-2.55-2.87-.13-3,1.34-1.75-1.88-2.62.41-2.87,2-.38-1.34-2.13-2.55-3.13-1.08-.12-1.34-2.12-2-2.5-.53,0-2-3-2.82-2.87-.81-1.63-2-3.75-.13-3.25,1.88-2.25-.8-2.75.81-2,3-1.25-.67-3.75-.27-2.63,1.74-1.12-.8-4.25.27-2.62,2-1.25-.4-3.38.27-3.13,2l6,7.25c6.75,4.84,16.75,7.39,24.75,6.05a6.81,6.81,0,0,0,.94-.23,20.4,20.4,0,0,0,4.19,1.57,19,19,0,0,0,11.62-.81,57.49,57.49,0,0,1,11.63-2.95c2.62-.54,7.87-1.75,7.5-5.65a1.37,1.37,0,0,0,.12.68C186.11,356.15,187.11,353.47,186,352.79Z" transform="translate(-4.56 -88.73)" style="fill:#e2bb91"/><path d="M130.15,347.48c0,.46-.67.83-1.5.83s-1.5-.37-1.5-.83.67-.84,1.5-.84S130.15,347,130.15,347.48Z" transform="translate(-4.56 -88.73)" style="fill:#c96"/><ellipse cx="127.68" cy="257.29" rx="1.5" ry="1.13" style="fill:#c96"/><ellipse cx="132.18" cy="262.58" rx="1.75" ry="1.25" style="fill:#c96"/><ellipse cx="137.63" cy="256.7" rx="1.13" ry="0.53" style="fill:#c96"/><path d="M154.26,344.47c0,.82-1.15,1.49-2.56,1.49s-2.55-.67-2.55-1.49,1.14-1.49,2.55-1.49S154.26,343.64,154.26,344.47Z" transform="translate(-4.56 -88.73)" style="fill:#c96"/><path d="M153.73,350.69c0,.34-.45.62-1,.62s-1-.28-1-.62.46-.63,1-.63S153.73,350.34,153.73,350.69Z" transform="translate(-4.56 -88.73)" style="fill:#c96"/><path d="M163.23,348a2.13,2.13,0,1,1-2.12-2A2.08,2.08,0,0,1,163.23,348Z" transform="translate(-4.56 -88.73)" style="fill:#c96"/><ellipse cx="155.49" cy="262.64" rx="1.06" ry="0.69" style="fill:#c96"/><ellipse cx="160.68" cy="257.04" rx="1.58" ry="0.88" style="fill:#c96"/><ellipse cx="127.8" cy="265.16" rx="2.21" ry="1" style="fill:#c96"/><path d="M146.48,355.14c0,.46-1,.84-2.14.84s-2.15-.38-2.15-.84,1-.83,2.15-.83S146.48,354.68,146.48,355.14Z" transform="translate(-4.56 -88.73)" style="fill:#c96"/><path d="M146.48,350.21c0,.26-.48.48-1.07.48s-1.07-.22-1.07-.48.48-.48,1.07-.48S146.48,349.94,146.48,350.21Z" transform="translate(-4.56 -88.73)" style="fill:#c96"/><ellipse cx="147.93" cy="266.2" rx="1.25" ry="0.63" style="fill:#c96"/><path d="M170.32,351c0,.42-.67.76-1.5.76s-1.5-.34-1.5-.76.67-.76,1.5-.76S170.32,350.55,170.32,351Z" transform="translate(-4.56 -88.73)" style="fill:#c96"/><path d="M176.65,352.31c0,.32-.74.58-1.67.58s-1.66-.26-1.66-.58.74-.58,1.66-.58S176.65,352,176.65,352.31Z" transform="translate(-4.56 -88.73)" style="fill:#c96"/><path d="M124.48,351.21c0,.28-.59.52-1.33.52s-1.33-.24-1.33-.52.59-.52,1.33-.52S124.48,350.92,124.48,351.21Z" transform="translate(-4.56 -88.73)" style="fill:#c96"/><path d="M125.48,349.52c0,.11-.33.21-.75.21s-.75-.1-.75-.21.34-.21.75-.21S125.48,349.4,125.48,349.52Z" transform="translate(-4.56 -88.73)" style="fill:#c96"/><path d="M139.57,357.69c0,.29-.64.54-1.42.54s-1.42-.25-1.42-.54.64-.55,1.42-.55S139.57,357.39,139.57,357.69Z" transform="translate(-4.56 -88.73)" style="fill:#c96"/><ellipse cx="126.18" cy="262.79" rx="0.58" ry="0.21" style="fill:#c96"/><ellipse cx="125.3" cy="266.62" rx="0.88" ry="0.21" style="fill:#c96"/><path d="M136,343c0,.21-.31.38-.7.38s-.71-.17-.71-.38.32-.39.71-.39S136,342.8,136,343Z" transform="translate(-4.56 -88.73)" style="fill:#c96"/><path d="M168.23,354.1c0,.12-.55.21-1.25.21s-1.25-.09-1.25-.21.56-.21,1.25-.21S168.23,354,168.23,354.1Z" transform="translate(-4.56 -88.73)" style="fill:#c96"/><path d="M182.9,348.47c0,.23-.45.42-1,.42s-1-.19-1-.42.45-.43,1-.43S182.9,348.23,182.9,348.47Z" transform="translate(-4.56 -88.73)" style="fill:#c96"/><path d="M181.9,349.76c0,.25-.58.45-1.29.45s-1.29-.2-1.29-.45.58-.45,1.29-.45S181.9,349.51,181.9,349.76Z" transform="translate(-4.56 -88.73)" style="fill:#c96"/><path d="M183.65,351.17c0,.11-.17.2-.37.2s-.38-.09-.38-.2.17-.2.38-.2S183.65,351.06,183.65,351.17Z" transform="translate(-4.56 -88.73)" style="fill:#c96"/></g></g></g></svg>